<svg width="38" height="34" fill="none" xmlns="http://www.w3.org/2000/svg"><path d="M35.857 26.74c.93 1.614.916 3.227-.04 4.84-.93 1.613-2.325 2.42-4.184 2.42H6.367c-1.86 0-3.267-.807-4.224-2.42-.93-1.613-.93-3.226 0-4.84L16.006 2.5C16.662 1.324 17.66.736 19 .736c1.34 0 2.338.588 2.994 1.764l13.863 24.24zM18.14 13v10.5h1.722V13H18.14zM19 27.889c.355 0 .656-.123.902-.37.274-.273.41-.587.41-.943a1.21 1.21 0 00-.41-.943 1.227 1.227 0 00-.902-.37c-.355 0-.67.124-.943.37-.246.246-.37.56-.37.943 0 .356.123.67.37.944.273.246.588.369.943.369z" fill="#EC7000"/></svg>