<svg width="183" height="49" fill="none" xmlns="http://www.w3.org/2000/svg"><path d="M29.795 18.506a.485.485 0 00-.404.21c-.106.141-.147.329-.123.563v.018l.65 3.603c0 .036.018.07.053.106a.19.19 0 00.105.035l.809.123c.55.07 1.148.152 1.793.246a338.448 338.448 0 012.601.334c.457.106.692.352.703.738.024.387-.21.64-.703.756l-.808.123c-.54.082-1.137.176-1.793.282-.645.093-1.242.181-1.793.263l-.809.106a.277.277 0 00-.105.07c-.035.023-.053.053-.053.088a26.61 26.61 0 00-.158.844l-.211 1.177c-.07.399-.135.75-.194 1.055l-.087.475c-.047.222-.018.41.087.562.106.14.247.211.422.211h.106c.047-.012.088-.023.123-.035.012 0 .017-.006.017-.018l11.655-5.748c.07-.035.105-.088.105-.158s-.035-.123-.105-.158l-11.672-5.836h-.018a.333.333 0 00-.105-.018.196.196 0 00-.088-.017zm0-.756a1.851 1.851 0 01.457.07l.035.035h.053l11.988 6.012a.632.632 0 01.299.281.66.66 0 01.123.387.74.74 0 01-.123.404.657.657 0 01-.299.264l-11.97 5.924c-.012 0-.024.006-.036.018-.011 0-.023.005-.035.017a8.16 8.16 0 01-.264.07 1.74 1.74 0 01-.246.018c-.187 0-.369-.041-.545-.123a1.39 1.39 0 01-.439-.352 1.248 1.248 0 01-.264-.544 1.52 1.52 0 010-.65c.012-.083.1-.563.264-1.442.164-.88.299-1.623.404-2.233a.735.735 0 01.229-.404.728.728 0 01.422-.211l.545-.07c.351-.035.79-.082 1.318-.14.539-.071 1.113-.142 1.723-.212l1.67-.193c.105-.012.152-.07.14-.176 0-.105-.047-.158-.14-.158a84.901 84.901 0 00-1.67-.176c-.61-.07-1.178-.129-1.705-.176a78.013 78.013 0 01-1.336-.158l-.528-.053a.715.715 0 01-.44-.193.83.83 0 01-.228-.422l-.668-3.744v-.035a1.589 1.589 0 01.035-.668c.059-.211.159-.393.3-.545.116-.14.251-.246.404-.317.164-.07.34-.105.527-.105zm31.403 13.5h-7.704V19.1h7.524v1.836h-5.346v3.222h4.446v1.836h-4.446v3.42h5.526v1.836zm2.453 0v-9.342h1.89l.126 1.188h.162c.3-.456.672-.804 1.116-1.044a2.973 2.973 0 011.494-.378c.984 0 1.77.336 2.358 1.008.588.672.882 1.566.882 2.682v5.886h-2.16v-5.544c0-.72-.156-1.266-.468-1.638-.312-.384-.756-.576-1.332-.576-.576 0-1.038.204-1.386.612-.348.396-.522.93-.522 1.602v5.544h-2.16zm12.818 0l-3.402-9.342h2.322l2.088 6.966h.162l2.07-6.966h2.268l-3.402 9.342h-2.106zm7.239 0v-9.342h2.16v9.342h-2.16zm1.08-10.602c-.372 0-.684-.12-.936-.36a1.212 1.212 0 01-.378-.918c0-.372.126-.678.378-.918s.564-.36.936-.36c.372 0 .684.12.936.36s.378.546.378.918-.126.678-.378.918-.564.36-.936.36zm6.29 10.836c-.912 0-1.644-.246-2.196-.738-.54-.504-.81-1.164-.81-1.98 0-1.056.42-1.872 1.26-2.448.84-.576 2.034-.864 3.582-.864.132 0 .264.006.396.018h.378c-.048-1.356-.768-2.034-2.16-2.034-.888 0-1.776.252-2.664.756v-1.746c.96-.516 1.956-.774 2.988-.774 1.248 0 2.214.348 2.898 1.044.684.684 1.026 1.668 1.026 2.952v5.58h-1.8l-.126-1.116h-.162c-.264.42-.624.75-1.08.99-.456.24-.966.36-1.53.36zm.594-1.548c.372 0 .708-.09 1.008-.27a2.12 2.12 0 00.738-.756c.192-.312.288-.66.288-1.044v-.936a3.802 3.802 0 00-.378-.018h-.378c-.912 0-1.614.138-2.106.414-.48.276-.72.678-.72 1.206 0 .42.138.762.414 1.026.288.252.666.378 1.134.378zm6.731 1.314v-9.342h1.89l.162 1.386h.162c.24-.492.558-.876.954-1.152.408-.276.87-.414 1.386-.414.336 0 .6.036.792.108v1.998a2.728 2.728 0 00-.864-.126c-.708 0-1.272.228-1.692.684-.42.456-.63 1.074-.63 1.854v5.004h-2.16zm11.496 3.33V21.908h1.89l.144 1.35h.162a2.942 2.942 0 011.08-1.152 2.838 2.838 0 011.548-.432c.768 0 1.434.198 1.998.594.564.396 1.002.96 1.314 1.692.312.72.468 1.578.468 2.574 0 1.008-.162 1.884-.486 2.628-.324.744-.774 1.32-1.35 1.728-.576.396-1.254.594-2.034.594-1.032 0-1.83-.438-2.394-1.314h-.18v4.41h-2.16zm4.248-4.878c.672 0 1.2-.27 1.584-.81.396-.552.594-1.32.594-2.304 0-.972-.198-1.734-.594-2.286-.384-.564-.912-.846-1.584-.846-.66 0-1.182.276-1.566.828-.384.552-.576 1.308-.576 2.268 0 .984.192 1.758.576 2.322.384.552.906.828 1.566.828zm10.237 1.782c-.876 0-1.644-.198-2.304-.594a4.074 4.074 0 01-1.53-1.71c-.36-.744-.54-1.608-.54-2.592s.18-1.842.54-2.574c.372-.744.882-1.32 1.53-1.728.66-.408 1.428-.612 2.304-.612.888 0 1.662.204 2.322.612.66.408 1.17.978 1.53 1.71.36.732.54 1.59.54 2.574 0 .984-.186 1.848-.558 2.592a4.074 4.074 0 01-1.53 1.71c-.648.408-1.416.612-2.304.612zm0-1.782c.684 0 1.224-.27 1.62-.81.396-.552.594-1.32.594-2.304 0-.96-.198-1.722-.594-2.286-.396-.564-.936-.846-1.62-.846-.672 0-1.206.276-1.602.828-.396.552-.594 1.314-.594 2.286s.198 1.74.594 2.304c.396.552.93.828 1.602.828zm3.15-11.862l-2.376 2.808h-1.908l1.926-2.808h2.358zm3.371 13.41V18.29h2.16v12.96h-2.16zm4.904 0v-9.342h2.16v9.342h-2.16zm1.08-10.602c-.372 0-.684-.12-.936-.36a1.212 1.212 0 01-.378-.918c0-.372.126-.678.378-.918s.564-.36.936-.36c.372 0 .684.12.936.36s.378.546.378.918-.126.678-.378.918-.564.36-.936.36zm3.321 10.602v-1.53l4.716-5.94v-.162h-4.482v-1.71h7.182v1.53l-4.716 5.94v.162h4.914v1.71h-7.614zm12.269.234c-.912 0-1.644-.246-2.196-.738-.54-.504-.81-1.164-.81-1.98 0-1.056.42-1.872 1.26-2.448.84-.576 2.034-.864 3.582-.864.132 0 .264.006.396.018h.378c-.048-1.356-.768-2.034-2.16-2.034-.888 0-1.776.252-2.664.756v-1.746c.96-.516 1.956-.774 2.988-.774 1.248 0 2.214.348 2.898 1.044.684.684 1.026 1.668 1.026 2.952v5.58h-1.8l-.126-1.116h-.162c-.264.42-.624.75-1.08.99-.456.24-.966.36-1.53.36zm.594-1.548c.372 0 .708-.09 1.008-.27a2.12 2.12 0 00.738-.756c.192-.312.288-.66.288-1.044v-.936a3.802 3.802 0 00-.378-.018h-.378c-.912 0-1.614.138-2.106.414-.48.276-.72.678-.72 1.206 0 .42.138.762.414 1.026.288.252.666.378 1.134.378z" fill="#039"/><rect x="1" y="1.5" width="181" height="46" rx="7" stroke="#039" stroke-width="2"/></svg>