<svg width="57" height="57" fill="none" xmlns="http://www.w3.org/2000/svg"><path d="M18 18.693a.963.963 0 01-.287.575.787.787 0 01-.574.246.821.821 0 01-.657-.287 1.035 1.035 0 01-.246-.698 10.7 10.7 0 011.067-3.732 10.592 10.592 0 012.297-3.035c.93-.848 2.01-1.518 3.24-2.01a10.084 10.084 0 013.855-.738c1.367 0 2.666.246 3.897.738a10.21 10.21 0 013.24 2.05 10.423 10.423 0 012.338 2.995 9.985 9.985 0 011.066 3.773c.028.246-.054.465-.246.657a.777.777 0 01-.615.287.93.93 0 01-.615-.246.787.787 0 01-.246-.575 8.665 8.665 0 00-.82-2.87 8.191 8.191 0 00-1.723-2.503 8.457 8.457 0 00-2.871-1.886 8.618 8.618 0 00-3.405-.698 8.23 8.23 0 00-3.322.698 8.56 8.56 0 00-2.83 1.886 8.837 8.837 0 00-1.764 2.502A8.005 8.005 0 0018 18.693zm22.764 10.46v4.224c0 .683-.069 1.367-.205 2.05a10.891 10.891 0 01-.616 1.97 11.52 11.52 0 01-.984 1.804 8.836 8.836 0 01-1.272 1.6l-.45.41v2.707c0 .465-.165.861-.493 1.19a1.605 1.605 0 01-1.23.533l-8.737.123h-.04a1.46 1.46 0 01-.657-.164 1.594 1.594 0 01-.943-.944 1.858 1.858 0 01-.123-.656v-2.79l-.657-.696a10.996 10.996 0 01-1.23-1.559 11.927 11.927 0 01-.902-1.764 12.405 12.405 0 01-.575-1.886 12.203 12.203 0 01-.164-2.01v-.492c0-.52.069-1.026.205-1.518a5.55 5.55 0 01.698-1.394c.191-.301.355-.547.492-.739.164-.218.287-.396.369-.533v-9.105c0-.985.342-1.819 1.025-2.502.684-.684 1.504-1.026 2.461-1.026.985 0 1.819.342 2.502 1.026.684.683 1.026 1.517 1.026 2.502v4.183c.273.028.656.096 1.148.205a3.188 3.188 0 011.559.82c.082.083.15.165.205.247h.287c.11-.028.205-.041.287-.041h.082c.137 0 .315.013.533.04a8 8 0 01.697.124c.301.11.588.26.862.451.273.164.506.37.697.615a1.35 1.35 0 01.328-.04h.369c.055 0 .22.013.492.04.274.027.588.11.944.246.246.11.465.233.656.37.219.136.41.3.574.492.246.246.424.533.534.861.136.3.218.629.246.984v.041zm-1.764 0c-.027-.63-.328-.999-.902-1.108l-.862-.164c-.328 0-.67.068-1.025.205-.355.11-.588.287-.697.533v-.78a.775.775 0 00-.041-.245 1.035 1.035 0 00-.123-.246c-.22-.301-.493-.479-.82-.534-.329-.082-.561-.123-.698-.123h-.041c-.355 0-.71.069-1.066.206-.356.109-.602.3-.739.574v-.862a.66.66 0 00-.123-.41.746.746 0 00-.246-.328c-.164-.137-.424-.232-.78-.287a4.259 4.259 0 00-.942-.123h-.247a.363.363 0 00-.164.041l-.287.082c-.191.055-.424.205-.697.451v-6.521c0-.246-.041-.465-.123-.657a1.595 1.595 0 00-.943-.943 1.456 1.456 0 00-.657-.164c-.246 0-.478.055-.697.164a2.257 2.257 0 00-.574.37 1.595 1.595 0 00-.37.573c-.081.192-.122.41-.122.657v9.638c-.055.082-.205.301-.451.657-.247.355-.479.71-.698 1.066a3.483 3.483 0 00-.45.902c-.11.328-.165.67-.165 1.026v.492a8.75 8.75 0 00.615 3.24 8.777 8.777 0 001.764 2.79l1.107 1.189V44l8.778-.082v-3.404l.902-.944a8.56 8.56 0 001.887-2.83A8.52 8.52 0 0039 33.377v-4.225z" fill="#56504C"/></svg>