<svg width="215" height="48" fill="none" xmlns="http://www.w3.org/2000/svg"><path d="M43.19 17.145l-.018-.018v-.035a64.38 64.38 0 01-.07-.106 1.14 1.14 0 01-.07-.123h-.018v-.017a.578.578 0 00-.07-.088.582.582 0 00-.071-.088l-.035-.035c-.012-.012-.018-.024-.018-.035a2.763 2.763 0 00-.879-.616 2.514 2.514 0 00-1.072-.228 2.59 2.59 0 00-1.072.228c-.34.153-.627.358-.861.616l-.036.035c0 .011-.005.023-.017.035a.582.582 0 00-.07.088.572.572 0 00-.07.088l-.018.017a1.14 1.14 0 01-.07.123l-.071.106c-.012.012-.018.023-.018.035 0 .012-.006.018-.017.018a3.31 3.31 0 00-.229.597c-.047.2-.07.41-.07.633v.211c.012.012.018.023.018.035v.159h.017v.087c.012 0 .018.006.018.018v.052l.017.018v.053l.018.017v.071h.017v.035c.012.012.018.03.018.053l.035.07v.035c.012 0 .018.006.018.018v.035c.011 0 .017.006.017.017v.018c.012 0 .018.006.018.018v.035h.017v.017l.018.018.035.105a.856.856 0 01.053.088c.012.012.018.024.018.035l.017.018v.035c.012 0 .024.006.035.018l.07.14c.036.035.07.076.106.123v5.643L40.87 24l2.038 1.67v-5.643c.035-.047.07-.088.106-.123a.938.938 0 00.088-.14l.017-.018c0-.012.006-.023.018-.035v-.018c.011-.011.017-.023.017-.035h.018a.678.678 0 00.035-.088.853.853 0 00.053-.088v-.017c.012 0 .017-.006.017-.018v-.017l.018-.018v-.017c0-.012.006-.018.017-.018v-.035l.018-.018v-.017l.018-.018v-.035a.135.135 0 00.017-.053l.035-.07v-.035c0-.012.006-.018.018-.018v-.035c0-.012.006-.023.017-.035v-.053c.012-.012.018-.023.018-.035v-.035c0-.012.006-.018.018-.018v-.088l.017-.017v-.141c0-.012.006-.023.018-.035v-.211c0-.223-.03-.434-.088-.633a2.177 2.177 0 00-.228-.598zm-1.02 6.943l-1.3-1.055-.475.387-.81.668V20.66c.188.106.388.188.599.246a2.682 2.682 0 001.37 0c.223-.058.428-.14.616-.246v3.428zm.58-5.643v.106c0 .012-.006.017-.018.017v.018a1.807 1.807 0 01-.615 1.195 1.804 1.804 0 01-1.248.475c-.48 0-.896-.158-1.248-.475a1.915 1.915 0 01-.615-1.195v-.211c0-.516.181-.955.545-1.318a1.768 1.768 0 011.318-.563c.516 0 .955.188 1.319.563.374.363.562.802.562 1.318v.07zm-5.256 8.56H31.87a.398.398 0 01-.264-.105.42.42 0 01-.105-.28c0-.095.035-.177.105-.247a.37.37 0 01.264-.123h5.625v.756zM31.87 28.5h5.625v.756H31.87a.398.398 0 01-.264-.106.42.42 0 01-.105-.28c0-.095.035-.177.105-.247a.37.37 0 01.264-.123zm9-3.533l.387.299v5.484c0 .21-.076.387-.229.527a.688.688 0 01-.527.229H30.006a.744.744 0 01-.545-.229.715.715 0 01-.211-.527V18.006c0-.211.07-.387.21-.527a.744.744 0 01.546-.229h7.681v.018c0 .011-.005.023-.017.035v.035a.205.205 0 01-.035.053v.035l-.07.281a1.226 1.226 0 00-.036.299h-7.523V30.75H40.5v-5.467l.37-.316zm12.624 5.783V18.6h3.51c1.332 0 2.472.246 3.42.738a5.045 5.045 0 012.178 2.07c.516.9.774 1.986.774 3.258 0 1.26-.264 2.346-.792 3.258-.528.9-1.284 1.596-2.268 2.088-.972.492-2.142.738-3.51.738h-3.312zm3.564-10.26h-1.35v8.37h1.242c1.332 0 2.352-.36 3.06-1.08.72-.732 1.08-1.764 1.08-3.096 0-1.356-.348-2.394-1.044-3.114-.684-.72-1.68-1.08-2.988-1.08zm12.7 10.494c-1.453 0-2.593-.438-3.42-1.314-.817-.876-1.225-2.082-1.225-3.618 0-.984.174-1.836.522-2.556.36-.732.858-1.302 1.494-1.71.648-.408 1.392-.612 2.232-.612 1.212 0 2.16.408 2.844 1.224.696.816 1.044 1.944 1.044 3.384v.99h-6.066c.108.804.402 1.422.882 1.854.492.42 1.146.63 1.962.63a5.36 5.36 0 002.646-.702V30.3c-.42.228-.876.396-1.368.504-.492.12-1.008.18-1.548.18zm-.487-8.136c-.6 0-1.08.21-1.44.63-.36.408-.582 1.002-.666 1.782h4.086c-.024-.78-.21-1.374-.558-1.782-.348-.42-.822-.63-1.422-.63zm8.993 8.136c-1.103 0-2.087-.204-2.951-.612V28.59c.42.228.858.402 1.313.522.468.12.942.18 1.422.18.552 0 .978-.096 1.278-.288a.975.975 0 00.469-.864c0-.312-.139-.558-.415-.738-.275-.192-.791-.396-1.547-.612-.852-.24-1.483-.588-1.89-1.044-.409-.456-.612-1.032-.612-1.728 0-.564.156-1.056.468-1.476.311-.432.743-.768 1.295-1.008.565-.24 1.219-.36 1.963-.36.84 0 1.614.162 2.322.486v1.728a5.223 5.223 0 00-2.269-.504c-.516 0-.924.09-1.224.27-.3.18-.45.444-.45.792 0 .3.126.54.378.72.265.168.75.354 1.459.558.948.264 1.632.63 2.052 1.098.42.456.63 1.056.63 1.8 0 .876-.337 1.572-1.008 2.088-.66.516-1.555.774-2.683.774zm9.772 0c-.924 0-1.728-.198-2.412-.594a4 4 0 01-1.584-1.692c-.36-.744-.54-1.614-.54-2.61 0-.984.192-1.842.576-2.574a4.2 4.2 0 011.62-1.71c.696-.42 1.5-.63 2.412-.63.888 0 1.632.174 2.232.522v1.8c-.564-.36-1.23-.54-1.998-.54-.828 0-1.482.282-1.962.846-.468.552-.702 1.308-.702 2.268 0 .948.24 1.71.72 2.286.48.564 1.134.846 1.962.846.804 0 1.506-.192 2.106-.576v1.8c-.696.372-1.506.558-2.43.558zm7.155 0c-.912 0-1.644-.246-2.196-.738-.54-.504-.81-1.164-.81-1.98 0-1.056.42-1.872 1.26-2.448.84-.576 2.034-.864 3.582-.864.132 0 .264.006.396.018h.378c-.048-1.356-.768-2.034-2.16-2.034-.888 0-1.776.252-2.664.756v-1.746c.96-.516 1.956-.774 2.988-.774 1.248 0 2.214.348 2.898 1.044.684.684 1.026 1.668 1.026 2.952v5.58h-1.8l-.126-1.116h-.162c-.264.42-.624.75-1.08.99-.456.24-.966.36-1.53.36zm.594-1.548c.372 0 .708-.09 1.008-.27a2.12 2.12 0 00.738-.756c.192-.312.288-.66.288-1.044v-.936a3.802 3.802 0 00-.378-.018h-.378c-.912 0-1.614.138-2.106.414-.48.276-.72.678-.72 1.206 0 .42.138.762.414 1.026.288.252.666.378 1.134.378zm6.731 1.314v-9.342h1.89l.162 1.386h.162c.24-.492.558-.876.954-1.152.408-.276.87-.414 1.386-.414.336 0 .6.036.792.108v1.998a2.728 2.728 0 00-.864-.126c-.708 0-1.272.228-1.692.684-.42.456-.63 1.074-.63 1.854v5.004h-2.16zm10.468 3.564c-.552 0-1.092-.06-1.62-.18a5.248 5.248 0 01-1.404-.522v-1.818c.408.228.852.408 1.332.54.48.132.966.198 1.458.198 1.824 0 2.736-.936 2.736-2.808v-.36h-.162a2.9 2.9 0 01-1.08 1.008 3.037 3.037 0 01-1.44.342c-.744 0-1.404-.192-1.98-.576-.564-.384-1.008-.924-1.332-1.62-.312-.696-.468-1.518-.468-2.466 0-.996.162-1.854.486-2.574.324-.732.78-1.296 1.368-1.692.588-.408 1.284-.612 2.088-.612 1.104 0 1.956.492 2.556 1.476h.162l.126-1.242h1.836v8.118c0 1.548-.402 2.73-1.206 3.546-.804.828-1.956 1.242-3.456 1.242zm.414-5.292c.648 0 1.164-.27 1.548-.81.396-.54.594-1.266.594-2.178 0-.924-.198-1.668-.594-2.232-.384-.564-.906-.846-1.566-.846s-1.188.27-1.584.81c-.396.54-.594 1.29-.594 2.25 0 .924.198 1.656.594 2.196.408.54.942.81 1.602.81zm9.444 1.962c-.912 0-1.644-.246-2.196-.738-.54-.504-.81-1.164-.81-1.98 0-1.056.42-1.872 1.26-2.448.84-.576 2.034-.864 3.582-.864.132 0 .264.006.396.018h.378c-.048-1.356-.768-2.034-2.16-2.034-.888 0-1.776.252-2.664.756v-1.746c.96-.516 1.956-.774 2.988-.774 1.248 0 2.214.348 2.898 1.044.684.684 1.026 1.668 1.026 2.952v5.58h-1.8l-.126-1.116h-.162c-.264.42-.624.75-1.08.99-.456.24-.966.36-1.53.36zm.594-1.548c.372 0 .708-.09 1.008-.27a2.12 2.12 0 00.738-.756c.192-.312.288-.66.288-1.044v-.936a3.802 3.802 0 00-.378-.018h-.378c-.912 0-1.614.138-2.106.414-.48.276-.72.678-.72 1.206 0 .42.138.762.414 1.026.288.252.666.378 1.134.378zm6.731 1.314v-9.342h1.89l.162 1.386h.162c.24-.492.558-.876.954-1.152.408-.276.87-.414 1.386-.414.336 0 .6.036.792.108v1.998a2.728 2.728 0 00-.864-.126c-.708 0-1.272.228-1.692.684-.42.456-.63 1.074-.63 1.854v5.004h-2.16zm11.496 3.33V21.408h1.89l.144 1.35h.162a2.942 2.942 0 011.08-1.152 2.838 2.838 0 011.548-.432c.768 0 1.434.198 1.998.594.564.396 1.002.96 1.314 1.692.312.72.468 1.578.468 2.574 0 1.008-.162 1.884-.486 2.628-.324.744-.774 1.32-1.35 1.728-.576.396-1.254.594-2.034.594-1.032 0-1.83-.438-2.394-1.314h-.18v4.41h-2.16zm4.248-4.878c.672 0 1.2-.27 1.584-.81.396-.552.594-1.32.594-2.304 0-.972-.198-1.734-.594-2.286-.384-.564-.912-.846-1.584-.846-.66 0-1.182.276-1.566.828-.384.552-.576 1.308-.576 2.268 0 .984.192 1.758.576 2.322.384.552.906.828 1.566.828zm10.237 1.782c-.876 0-1.644-.198-2.304-.594a4.074 4.074 0 01-1.53-1.71c-.36-.744-.54-1.608-.54-2.592s.18-1.842.54-2.574c.372-.744.882-1.32 1.53-1.728.66-.408 1.428-.612 2.304-.612.888 0 1.662.204 2.322.612.66.408 1.17.978 1.53 1.71.36.732.54 1.59.54 2.574 0 .984-.186 1.848-.558 2.592a4.074 4.074 0 01-1.53 1.71c-.648.408-1.416.612-2.304.612zm0-1.782c.684 0 1.224-.27 1.62-.81.396-.552.594-1.32.594-2.304 0-.96-.198-1.722-.594-2.286-.396-.564-.936-.846-1.62-.846-.672 0-1.206.276-1.602.828-.396.552-.594 1.314-.594 2.286s.198 1.74.594 2.304c.396.552.93.828 1.602.828zm3.15-11.862l-2.376 2.808h-1.908l1.926-2.808h2.358zm3.371 13.41V17.79h2.16v12.96h-2.16zm4.904 0v-9.342h2.16v9.342h-2.16zm1.08-10.602c-.372 0-.684-.12-.936-.36a1.212 1.212 0 01-.378-.918c0-.372.126-.678.378-.918s.564-.36.936-.36c.372 0 .684.12.936.36s.378.546.378.918-.126.678-.378.918-.564.36-.936.36zm3.32 10.602v-1.53l4.716-5.94v-.162h-4.482v-1.71h7.182v1.53l-4.716 5.94v.162h4.914v1.71h-7.614zm12.269.234c-.912 0-1.644-.246-2.196-.738-.54-.504-.81-1.164-.81-1.98 0-1.056.42-1.872 1.26-2.448.84-.576 2.034-.864 3.582-.864.132 0 .264.006.396.018h.378c-.048-1.356-.768-2.034-2.16-2.034-.888 0-1.776.252-2.664.756v-1.746c.96-.516 1.956-.774 2.988-.774 1.248 0 2.214.348 2.898 1.044.684.684 1.026 1.668 1.026 2.952v5.58h-1.8l-.126-1.116h-.162c-.264.42-.624.75-1.08.99-.456.24-.966.36-1.53.36zm.594-1.548c.372 0 .708-.09 1.008-.27a2.12 2.12 0 00.738-.756c.192-.312.288-.66.288-1.044v-.936a3.802 3.802 0 00-.378-.018h-.378c-.912 0-1.614.138-2.106.414-.48.276-.72.678-.72 1.206 0 .42.138.762.414 1.026.288.252.666.378 1.134.378z" fill="#039"/><rect x="1" y="1" width="213" height="46" rx="7" stroke="#039" stroke-width="2"/></svg>