<svg width="16" height="17" fill="none" xmlns="http://www.w3.org/2000/svg"><path d="M15.828 14.977a.65.65 0 01.164.445.542.542 0 01-.164.398.608.608 0 01-.445.188.51.51 0 01-.399-.188L8 8.836 1.016 15.82a.535.535 0 01-.422.188.535.535 0 01-.422-.188.542.542 0 01-.164-.398.65.65 0 01.164-.445l6.984-6.985L.172 1.008A.542.542 0 01.008.609c0-.171.054-.32.164-.445A.624.624 0 01.594 0c.172 0 .312.055.422.164L8 7.148 14.984.164c.11-.11.25-.164.422-.164s.313.055.422.164a.65.65 0 01.164.445c0 .157-.055.29-.164.399L8.844 7.992l6.984 6.985z" fill="#EC7000"/></svg>