<svg width="56" height="59" fill="none" xmlns="http://www.w3.org/2000/svg"><path d="M45.514 45.861a.777.777 0 01-.287.616.777.777 0 01-.616.287H11.39a.903.903 0 01-.657-.287.835.835 0 01-.246-.616.93.93 0 01.246-.615.98.98 0 01.657-.246h33.22c.246 0 .452.082.616.246.191.191.287.397.287.615zm-29.778-7.875V13.295c.028-.465.205-.834.534-1.107.328-.301.697-.452 1.107-.452.137 0 .26.028.37.082.136.028.259.069.368.123l2.871 1.436 2.748-1.436c.11-.054.233-.095.37-.123.136-.054.273-.082.41-.082.136 0 .26.028.369.082.137.028.273.069.41.123L28 13.5l2.707-1.559c.137-.054.26-.095.37-.123.136-.054.273-.082.41-.082.136 0 .273.028.41.082.136.028.26.069.369.123l2.748 1.436 2.87-1.436a.925.925 0 01.329-.164 2.09 2.09 0 01.41-.04c.41 0 .78.15 1.108.45.328.274.505.643.533 1.108v24.692c0 .491-.178.915-.534 1.27-.328.329-.738.493-1.23.493h-21a1.81 1.81 0 01-1.271-.492 1.81 1.81 0 01-.493-1.272zm1.764 0h21V13.582l-3.527 1.764-3.487-1.846L28 15.51l-.861-.492-2.625-1.518-3.487 1.846-.82-.41-2.707-1.354v24.404zm4.389-15.75H34.11a.835.835 0 00.616-.246.777.777 0 00.287-.615.777.777 0 00-.287-.615.835.835 0 00-.616-.246H21.89a.98.98 0 00-.657.246.835.835 0 00-.246.615c0 .246.082.451.246.615a.98.98 0 00.657.246zm0 5.25H34.11a.835.835 0 00.616-.246.777.777 0 00.287-.615.777.777 0 00-.287-.615.835.835 0 00-.616-.246H21.89a.98.98 0 00-.657.246.835.835 0 00-.246.615c0 .246.082.451.246.615a.98.98 0 00.657.246zm0 5.25H34.11a.835.835 0 00.616-.246.777.777 0 00.287-.615.777.777 0 00-.287-.615.835.835 0 00-.616-.246H21.89a.98.98 0 00-.657.246.835.835 0 00-.246.615c0 .246.082.451.246.615a.98.98 0 00.657.246z" fill="#56504C"/></svg>