<svg width="32" height="32" fill="none" xmlns="http://www.w3.org/2000/svg"><path d="M16 6c1.234 0 2.398.234 3.492.703a8.756 8.756 0 012.836 1.922 9.03 9.03 0 011.922 2.86 8.77 8.77 0 01.703 3.492 8.77 8.77 0 01-.703 3.492 9.031 9.031 0 01-1.922 2.86 9.235 9.235 0 01-2.86 1.898 8.773 8.773 0 01-3.491.703 8.772 8.772 0 01-3.493-.703 9.03 9.03 0 01-2.859-1.922 9.233 9.233 0 01-1.898-2.86 8.771 8.771 0 01-.704-3.492c0-.906.125-1.773.375-2.601A9.477 9.477 0 018.5 10.008a9.205 9.205 0 013.984-3.305 8.502 8.502 0 011.735-.516A8.624 8.624 0 0116 6zm0-1.008a9.63 9.63 0 00-3.89.797 9.929 9.929 0 00-3.188 2.133 9.93 9.93 0 00-2.133 3.187A9.63 9.63 0 005.992 15a9.63 9.63 0 00.797 3.89 9.928 9.928 0 002.133 3.188 9.928 9.928 0 003.187 2.133 9.63 9.63 0 003.891.797 9.63 9.63 0 003.89-.797 9.927 9.927 0 003.188-2.133 9.927 9.927 0 002.133-3.187A9.63 9.63 0 0026.008 15a9.63 9.63 0 00-.797-3.89 9.928 9.928 0 00-2.133-3.188 9.928 9.928 0 00-3.187-2.133A9.63 9.63 0 0016 4.992zm-1.477 13.992a.767.767 0 01-.187-.023.626.626 0 01-.164-.117l-3-3a.509.509 0 01-.188-.328.56.56 0 01.141-.375.477.477 0 01.352-.141.408.408 0 01.351.117c.016 0 .024.008.024.024h.023l2.648 2.648 5.72-5.648a.532.532 0 01.35-.141c.141 0 .259.055.352.164.094.094.14.211.14.352a.45.45 0 01-.14.328l-6.07 6a.627.627 0 01-.164.117.767.767 0 01-.188.023z" fill="#fff"/></svg>