<svg width="32" height="33" fill="none" xmlns="http://www.w3.org/2000/svg"><path d="M16 6.492a9.63 9.63 0 00-3.89.797 9.929 9.929 0 00-3.188 2.133 9.929 9.929 0 00-2.133 3.187 9.63 9.63 0 00-.797 3.891 9.63 9.63 0 00.797 3.89 9.928 9.928 0 002.133 3.188 9.928 9.928 0 003.187 2.133 9.63 9.63 0 003.891.797 9.63 9.63 0 003.89-.797 9.927 9.927 0 003.188-2.133 9.927 9.927 0 002.133-3.187 9.63 9.63 0 00.797-3.891 9.63 9.63 0 00-.797-3.89 9.928 9.928 0 00-2.133-3.188 9.928 9.928 0 00-3.187-2.133A9.63 9.63 0 0016 6.492zm-1.477 13.992a.767.767 0 01-.187-.023.626.626 0 01-.164-.117l-3-3a.509.509 0 01-.188-.328.56.56 0 01.141-.375.477.477 0 01.352-.141.408.408 0 01.351.117c.016 0 .024.008.024.024h.023l2.648 2.648 5.72-5.648a.532.532 0 01.35-.141c.141 0 .259.055.352.164.094.094.14.211.14.352a.45.45 0 01-.14.328l-6.07 6a.627.627 0 01-.164.117.767.767 0 01-.188.023z" fill="#008859"/></svg>