<svg width="24" height="24" fill="none" xmlns="http://www.w3.org/2000/svg"><path d="M6.938 6.267v5.062h.867V9.571h.07c.11.172.242.305.398.399.172.078.36.117.563.117.14 0 .273-.016.398-.047.141-.047.274-.11.399-.187.11-.079.21-.172.305-.282.093-.11.171-.242.234-.398.062-.14.11-.297.14-.469a2.4 2.4 0 00.07-.586c0-.187-.015-.367-.046-.539a2.055 2.055 0 00-.14-.469 1.412 1.412 0 00-.235-.398 1.202 1.202 0 00-.281-.281 1.034 1.034 0 00-.399-.188 1.195 1.195 0 00-.422-.07c-.109 0-.218.015-.328.047-.094.031-.187.07-.281.117-.094.062-.18.133-.258.21a1.447 1.447 0 00-.164.259h-.07l-.07-.54h-.75zm1.687 3.117a.883.883 0 01-.352-.07 1.009 1.009 0 01-.257-.258 1.858 1.858 0 01-.188-.399 2.77 2.77 0 01-.047-.539c0-.187.016-.351.047-.492.047-.156.11-.29.188-.398a.72.72 0 01.257-.235.742.742 0 01.727 0c.11.047.195.125.258.235a.85.85 0 01.187.398c.047.14.07.312.07.516 0 .187-.023.359-.07.515a1.02 1.02 0 01-.164.399.882.882 0 01-.281.257.944.944 0 01-.375.07zm3.727.703c.109 0 .218-.008.328-.024.11-.03.203-.07.28-.117a1.71 1.71 0 00.259-.21.988.988 0 00.187-.258h.07l.047.515h.75v-5.18h-.867v1.899h-.07a.69.69 0 00-.188-.234.892.892 0 00-.234-.165.73.73 0 00-.258-.093.756.756 0 00-.281-.047 1.395 1.395 0 00-1.125.539 2.21 2.21 0 00-.328.633c-.063.234-.094.5-.094.797 0 .296.031.57.094.82a1.9 1.9 0 00.328.61c.14.171.297.304.469.398.187.078.398.117.633.117zm.234-.703a.944.944 0 01-.375-.07.882.882 0 01-.281-.258 1.347 1.347 0 01-.188-.399 2.63 2.63 0 01-.047-.515c0-.204.016-.375.047-.516.047-.156.11-.29.188-.398a.67.67 0 01.28-.235.742.742 0 01.376-.094c.125 0 .234.032.328.094a.67.67 0 01.281.235c.078.109.133.242.164.398.047.156.07.328.07.516 0 .187-.023.359-.07.515-.03.156-.086.29-.164.399a.882.882 0 01-.28.257.725.725 0 01-.33.07zm2.883-2.438v3.047h.867V6.946h1.008v-.68h-1.008v-.163c0-.22.055-.383.164-.493.11-.125.273-.187.492-.187.078 0 .156.008.235.023l.234.047v-.68a1.242 1.242 0 00-.258-.07 1.995 1.995 0 00-.914.07 1.202 1.202 0 00-.727.727 1.784 1.784 0 00-.093.61v.117h-.656v.68h.656zm-8.461 7.547c0 .14.047.266.14.375.094.094.211.14.352.14h9c.14 0 .258-.046.352-.14a.56.56 0 00.14-.375.477.477 0 00-.492-.492h-9a.477.477 0 00-.492.492zm0 3c0 .14.047.266.14.375.094.094.211.14.352.14h9c.14 0 .258-.046.352-.14a.56.56 0 00.14-.375.477.477 0 00-.492-.492h-9a.477.477 0 00-.492.492zm-3-15.492c0-.281.094-.516.281-.703a.966.966 0 01.703-.305h14.016c.265 0 .492.102.68.305a.917.917 0 01.304.703v18a.917.917 0 01-.305.703.892.892 0 01-.68.305H4.993a.966.966 0 01-.703-.305.954.954 0 01-.281-.703v-18zm.984 0v18h14.016v-18H4.992z" fill="#007AB7"/></svg>