<svg width="24" height="25" fill="none" xmlns="http://www.w3.org/2000/svg"><path d="M5.795 6.506a.485.485 0 00-.404.21c-.106.141-.147.329-.123.563v.018l.65 3.603c0 .035.018.07.053.106a.19.19 0 00.105.035l.809.123c.55.07 1.148.152 1.793.246a338.545 338.545 0 012.601.334c.457.106.692.352.703.738.024.387-.21.64-.703.756l-.808.123c-.54.082-1.137.176-1.793.282-.645.093-1.242.181-1.793.263l-.809.106a.277.277 0 00-.105.07c-.035.023-.053.053-.053.088a27.2 27.2 0 00-.158.844l-.211 1.177c-.07.399-.135.75-.194 1.055l-.087.475c-.047.222-.018.41.087.562.106.14.247.211.422.211h.106a1.69 1.69 0 00.123-.035c.012 0 .017-.006.017-.018l11.655-5.748c.07-.035.105-.088.105-.158s-.035-.123-.105-.158L6.006 6.541h-.018a.332.332 0 00-.105-.018.196.196 0 00-.088-.017zm0-.756a1.846 1.846 0 01.457.07l.035.035h.053l11.988 6.012a.632.632 0 01.299.281.66.66 0 01.123.387c0 .14-.041.275-.123.405a.657.657 0 01-.299.263l-11.97 5.924c-.012 0-.024.006-.036.018-.011 0-.023.005-.035.017-.082.024-.17.047-.264.07a1.74 1.74 0 01-.246.018c-.187 0-.369-.041-.545-.123-.164-.082-.31-.2-.439-.352a1.248 1.248 0 01-.264-.544 1.521 1.521 0 010-.65c.012-.083.1-.563.264-1.442.164-.88.299-1.623.404-2.233a.735.735 0 01.229-.404.728.728 0 01.422-.211l.545-.07c.351-.036.79-.082 1.318-.14.539-.071 1.113-.141 1.723-.212l1.67-.193c.105-.012.152-.07.14-.176 0-.105-.047-.158-.14-.158a84.895 84.895 0 00-1.67-.176c-.61-.07-1.178-.129-1.705-.176a77.939 77.939 0 01-1.336-.158l-.528-.053a.715.715 0 01-.44-.193.83.83 0 01-.228-.422L4.53 7.42v-.035a1.59 1.59 0 01.035-.668c.06-.211.159-.393.3-.545.116-.14.251-.246.404-.317.164-.07.34-.105.527-.105z" fill="#039"/></svg>