<svg width="15" height="17" fill="none" xmlns="http://www.w3.org/2000/svg"><path d="M14.19 1.645l-.018-.018v-.035l-.07-.106a1.149 1.149 0 01-.07-.123h-.018v-.017a.583.583 0 00-.07-.088.577.577 0 00-.106-.123c-.012-.012-.018-.024-.018-.035a2.764 2.764 0 00-.879-.616A2.515 2.515 0 0011.87.256c-.375 0-.732.076-1.072.228-.34.153-.627.358-.861.616l-.036.035c0 .011-.005.023-.017.035a.577.577 0 00-.07.088.576.576 0 00-.07.088l-.018.017a1.15 1.15 0 01-.07.123l-.071.106c-.012.012-.018.023-.018.035 0 .012-.005.018-.017.018a3.32 3.32 0 00-.229.597c-.047.2-.07.41-.07.633v.211c.012.012.018.023.018.035v.159h.017v.087c.012 0 .018.006.018.018v.053l.017.017v.053l.018.017v.071h.017v.035c.012.012.018.03.018.053l.035.07v.035c.012 0 .018.006.018.018v.035c.011 0 .017.006.017.017v.018c.012 0 .018.006.018.018v.035h.018v.017l.017.018.035.105a.859.859 0 01.053.088c.012.012.018.024.018.035l.017.018v.035c.012 0 .024.006.035.018l.07.14c.036.035.07.076.106.123v5.643l2.04-1.67 2.038 1.67V4.527c.035-.047.07-.088.106-.123a.933.933 0 00.088-.14l.017-.018c0-.012.006-.023.018-.035v-.018c.011-.011.017-.023.017-.035h.018a.682.682 0 00.035-.088.865.865 0 00.053-.088v-.017c.011 0 .017-.006.017-.018V3.93l.018-.018v-.017c0-.012.006-.018.018-.018v-.035l.017-.018v-.017l.018-.018v-.035a.135.135 0 00.017-.053l.035-.07v-.035c0-.012.006-.018.018-.018v-.035c0-.012.006-.023.018-.035v-.053c.011-.012.017-.023.017-.035v-.035c0-.012.006-.018.018-.018v-.088l.017-.017v-.141c0-.012.006-.023.018-.035v-.211c0-.223-.03-.434-.088-.633a2.178 2.178 0 00-.228-.597zm-1.02 6.943l-1.3-1.055-.475.387-.81.668V5.16c.188.106.388.188.599.246a2.682 2.682 0 001.37 0c.223-.058.428-.14.616-.246v3.428zm.58-5.643v.106c0 .011-.006.017-.018.017v.018a1.807 1.807 0 01-.615 1.195 1.804 1.804 0 01-1.248.475c-.48 0-.896-.158-1.248-.475a1.915 1.915 0 01-.615-1.195v-.212c0-.516.181-.955.545-1.318a1.768 1.768 0 011.318-.563c.516 0 .955.188 1.319.563.374.363.562.802.562 1.318v.07zm-5.256 8.56H2.87a.399.399 0 01-.264-.105.42.42 0 01-.105-.28c0-.095.035-.177.105-.247a.37.37 0 01.264-.123h5.625v.756zM2.87 13h5.625v.756H2.87a.399.399 0 01-.264-.106.42.42 0 01-.105-.28c0-.095.035-.177.105-.247A.37.37 0 012.87 13zm9-3.533l.387.299v5.484c0 .21-.076.387-.229.527a.688.688 0 01-.527.229H1.006a.744.744 0 01-.545-.229.715.715 0 01-.211-.527V2.506c0-.211.07-.387.21-.527a.744.744 0 01.546-.229h7.681v.018c0 .011-.005.023-.017.035v.035a.205.205 0 01-.035.053v.035l-.07.281a1.229 1.229 0 00-.036.299H1.006V15.25H11.5V9.783l.37-.316z" fill="#039"/></svg>