<svg width="26" height="26" fill="none" xmlns="http://www.w3.org/2000/svg"><path d="M13 1.5c1.543 0 2.998.293 4.365.879A10.944 10.944 0 0120.91 4.78a11.287 11.287 0 012.402 3.574 10.97 10.97 0 01.88 4.366c0 1.543-.294 2.998-.88 4.365a11.288 11.288 0 01-2.402 3.574 11.544 11.544 0 01-3.574 2.373 10.964 10.964 0 01-4.365.88 10.97 10.97 0 01-4.366-.88 11.287 11.287 0 01-3.574-2.402 11.544 11.544 0 01-2.373-3.574 10.964 10.964 0 01-.879-4.366c0-1.132.157-2.216.47-3.252a11.845 11.845 0 011.376-2.93 11.507 11.507 0 014.98-4.13 10.626 10.626 0 012.168-.645A10.78 10.78 0 0113 1.5zm0-1.26c-1.719 0-3.34.332-4.863.996a12.412 12.412 0 00-3.985 2.666 12.412 12.412 0 00-2.666 3.985A12.038 12.038 0 00.49 12.75c0 1.719.332 3.34.996 4.863a12.413 12.413 0 002.666 3.985 12.413 12.413 0 003.985 2.666c1.523.664 3.144.996 4.863.996 1.719 0 3.34-.332 4.863-.996a12.415 12.415 0 003.985-2.666 12.415 12.415 0 002.666-3.985 12.04 12.04 0 00.996-4.863c0-1.719-.332-3.34-.996-4.863a12.413 12.413 0 00-2.666-3.985 12.413 12.413 0 00-3.985-2.666A12.038 12.038 0 0013 .24zm-1.846 17.49a.965.965 0 01-.234-.029.783.783 0 01-.205-.146l-3.75-3.75a.636.636 0 01-.235-.41.7.7 0 01.176-.47.596.596 0 01.44-.175.51.51 0 01.44.146c.019 0 .028.01.028.03h.03l3.31 3.31 7.149-7.06a.664.664 0 01.44-.176c.175 0 .322.068.439.205a.596.596 0 01.175.44.562.562 0 01-.175.41l-7.588 7.5a.783.783 0 01-.205.146.965.965 0 01-.235.03z" fill="#008859"/></svg>