<svg width="38" height="34" fill="none" xmlns="http://www.w3.org/2000/svg"><path d="M35.857 26.74L21.994 2.5C21.338 1.324 20.34.736 19 .736c-1.34 0-2.338.588-2.994 1.764L2.143 26.74c-.93 1.614-.93 3.227 0 4.84C3.1 33.193 4.508 34 6.367 34h25.266c1.86 0 3.254-.807 4.183-2.42.957-1.613.971-3.226.041-4.84zM18.14 13h1.722v10.5H18.14V13zM19 27.889c-.355 0-.67-.123-.943-.37a1.369 1.369 0 01-.37-.943c0-.383.123-.697.37-.943.273-.246.588-.37.943-.37s.656.124.902.37c.274.246.41.56.41.943 0 .356-.136.67-.41.944a1.227 1.227 0 01-.902.369z" fill="#B71C1C"/></svg>