<svg width="21" height="19" fill="none" xmlns="http://www.w3.org/2000/svg"><path d="M20.164 14.836L12.242.984C11.867.328 11.297 0 10.532 0 9.765 0 9.194.328 8.82.984L.898 14.836c-.53.922-.53 1.844 0 2.766.547.921 1.352 1.382 2.414 1.382H17.75c1.063 0 1.86-.46 2.39-1.382.547-.922.555-1.844.024-2.766zM10.04 6.984h.984v6h-.984v-6zm.492 8.508a.782.782 0 01-.539-.21.782.782 0 01-.21-.54.7.7 0 01.21-.515.74.74 0 01.54-.235c.202 0 .374.078.515.235.156.14.234.312.234.515a.741.741 0 01-.234.54.701.701 0 01-.516.21z" fill="#fff"/></svg>