<svg width="27" height="24" fill="none" xmlns="http://www.w3.org/2000/svg"><path d="M7.26 3.135c0 .86-.313 1.592-.938 2.197a2.993 2.993 0 01-2.197.908 3.09 3.09 0 01-2.227-.908A2.993 2.993 0 01.99 3.135c0-.88.303-1.621.908-2.227A3.09 3.09 0 014.125 0c.86 0 1.592.303 2.197.908.625.606.938 1.348.938 2.227zm0 8.73c0 .88-.313 1.621-.938 2.227A2.993 2.993 0 014.125 15a3.09 3.09 0 01-2.227-.908c-.605-.606-.908-1.348-.908-2.227 0-.86.303-1.592.908-2.197a3.09 3.09 0 012.227-.908c.86 0 1.592.303 2.197.908.625.605.938 1.338.938 2.197zm0 8.76c0 .86-.313 1.592-.938 2.197-.605.625-1.338.938-2.197.938-.86 0-1.602-.313-2.227-.938a2.993 2.993 0 01-.908-2.197c0-.86.303-1.592.908-2.197.625-.625 1.368-.938 2.227-.938.86 0 1.592.313 2.197.938.625.605.938 1.338.938 2.197zM22.875 3.75h-12.51a.664.664 0 01-.44-.176.664.664 0 01-.175-.44c0-.175.059-.321.176-.439.136-.136.283-.205.44-.205h12.509a.56.56 0 01.44.205.597.597 0 01.175.44.665.665 0 01-.175.44.596.596 0 01-.44.175zm2.49 8.76h-15a.664.664 0 01-.44-.176.7.7 0 01-.175-.469c0-.156.059-.293.176-.41.136-.137.283-.205.44-.205h15c.175 0 .322.068.439.205a.527.527 0 01.205.41.645.645 0 01-.205.469.596.596 0 01-.44.176zm-7.5 8.73h-7.5a.665.665 0 01-.44-.175.596.596 0 01-.175-.44.6.6 0 01.176-.44.665.665 0 01.44-.175h7.5c.175 0 .322.058.439.175a.555.555 0 01.205.44.555.555 0 01-.205.44.597.597 0 01-.44.175z" fill="#56504C"/></svg>