<svg width="69" height="55" fill="none" xmlns="http://www.w3.org/2000/svg"><g clip-path="url(#clip0_430_11019)" fill="#56504C"><path d="M6.322 35.573c.774 0 1.67-.221 1.67-1.28v-2.511h2.627c1.015 0 1.229-.924 1.229-1.7 0-.775-.214-1.698-1.229-1.698H7.967v-2.34c0-1.016-.909-1.23-1.67-1.23-.76 0-1.695.214-1.695 1.23v2.364H2c-1.056 0-1.277.924-1.277 1.7 0 .775.22 1.674 1.277 1.674h2.628v2.511c0 1.059.921 1.28 1.695 1.28z"/><path d="M15.462 41.518c2.726 0 4.628-.93 4.628-2.266.008-.434-.08-.752-.255-.93a.59.59 0 00-.417-.175c-.121 0-.272.034-.433.075l-.038.016c-.812.343-1.58.664-2.596.664-1.59 0-2.502-1.04-2.502-2.86V23.425h4.331c.834 0 1.022-1.12 1.022-1.51 0-.16 0-.648-.834-.648h-4.52v-3.64c0-.847-.774-1.025-1.425-1.025-.533 0-1.426.133-1.426 1.025v3.64h-2.34c-.291 0-.834 0-.834 1.078 0 1.079.543 1.079.834 1.079h2.206v3.667c1.372.186 2.207 1.337 2.207 3.1 0 1.765-.834 2.891-2.207 3.075v3.72c0 2.838 1.72 4.53 4.6 4.53v.003zM26.225 13.5c-.444 0-1.48.105-1.48 1.078v1.753c0 .939.928 1.079 1.48 1.079.686 0 1.507-.187 1.507-1.079v-1.753c0-.893-.818-1.078-1.507-1.078zm0 7.497c-.444 0-1.48.105-1.48 1.078v18.149c0 .938.928 1.078 1.48 1.078.686 0 1.507-.187 1.507-1.078V22.075c0-.892-.818-1.078-1.507-1.078zm18.43-.217c-1.99 0-3.577.626-5.435 1.56l-1.184.748v-1.12c0-.852-.998-.944-1.425-.944-.503 0-1.345.122-1.345.944v26.454c0 .938.928 1.078 1.48 1.078.685 0 1.506-.187 1.506-1.078v-8.26l.958.45a9.983 9.983 0 003.91.933c5.15 0 7.886-3.665 7.886-10.597-.022-6.841-2.1-10.166-6.35-10.166v-.001zm-2.017 18.5h-.013a7.608 7.608 0 01-4.106-1.306l-.293-.2V25.07l.32-.197c1.455-.898 2.717-1.583 4.603-1.583 3.07 0 4.628 2.567 4.628 7.632 0 7.272-3.22 8.359-5.14 8.359zm13.011.369c.77.575 2.881 1.895 6.09 1.895 4.096 0 6.539-2.046 6.539-5.474-.027-3.152-2.77-4.462-5.424-5.73-2.29-1.093-4.45-2.125-4.45-4.329 0-1.831 1.38-2.966 3.606-2.966 1.875 0 3.07.809 3.649 2.475.15.454.575.755 1.036.736.587 0 1.423-.224 1.423-.836 0-.097 0-.23-.013-.3-.45-2.806-2.62-4.338-6.12-4.338-3.993 0-6.377 2.066-6.377 5.528 0 3.462 3.037 4.978 5.72 6.272 2.053.99 3.993 1.925 3.993 3.732 0 1.807-1.388 2.993-3.713 2.993-1.937 0-3.898-.868-5.087-1.68l-.04-.029a.854.854 0 00-.522-.175c-.454 0-.825.749-.834 1.247.022.39.22.753.527.978h-.003z"/></g><defs><clipPath id="clip0_430_11019"><path fill="#fff" transform="translate(.722 13.5)" d="M0 0h67.556v36H0z"/></clipPath></defs></svg>