<svg width="57" height="57" fill="none" xmlns="http://www.w3.org/2000/svg"><path d="M42.486 36.986c-.957 0-1.777-.341-2.46-1.025C39.341 35.277 39 34.457 39 33.5v-7.014c0-1.258-.205-2.447-.615-3.568a10.397 10.397 0 00-1.723-3.035 10.584 10.584 0 00-2.625-2.297 10.307 10.307 0 00-3.24-1.354h-.205c-.027-.027-.069-.04-.123-.04h-.041c-.028-.028-.055-.042-.082-.042h-.123a.314.314 0 00-.123-.04h-.164l-.041-.042h-.329c0-.027-.013-.04-.04-.04h-.492a.316.316 0 00-.124-.042h-.861c-.027 0-.055.014-.082.041h-.492c-.028 0-.055.014-.082.041h-.287c-.028.028-.055.041-.083.041h-.164c-.027 0-.054.014-.082.041h-.164l-.04.041h-.042a.365.365 0 00-.164.041h-.163a10.307 10.307 0 00-3.241 1.354 10.584 10.584 0 00-2.625 2.297 10.397 10.397 0 00-1.723 3.035A10.305 10.305 0 0018 26.486V33.5c0 .957-.342 1.777-1.025 2.46-.684.684-1.504 1.026-2.461 1.026-.492 0-.916.178-1.272.534-.328.328-.492.738-.492 1.23s.164.916.492 1.272c.356.328.78.492 1.272.492h27.972c.492 0 .903-.164 1.23-.492.356-.356.534-.78.534-1.272s-.178-.902-.533-1.23a1.605 1.605 0 00-1.23-.534zM14.514 38.75c.683 0 1.34-.123 1.968-.37a5.285 5.285 0 001.723-1.148 5.93 5.93 0 001.149-1.722c.273-.63.41-1.3.41-2.01v-7.014c0-1.148.218-2.256.656-3.322a8.56 8.56 0 011.887-2.83 8.276 8.276 0 012.83-1.928 8.777 8.777 0 013.363-.656c1.176 0 2.297.219 3.363.656a8.276 8.276 0 012.83 1.928 8.56 8.56 0 011.887 2.83 8.672 8.672 0 01.656 3.322V33.5c0 .71.137 1.38.41 2.01a5.93 5.93 0 001.149 1.722 5.413 5.413 0 001.682 1.149 5.465 5.465 0 002.01.369H14.513zm10.54-23.994a.773.773 0 01-.04-.246v-.246c0-.985.341-1.819 1.025-2.502.684-.684 1.504-1.026 2.461-1.026.957 0 1.777.342 2.46 1.026.684.683 1.026 1.517 1.026 2.502v.246a.773.773 0 01-.04.246 7.922 7.922 0 00-.862-.205 4.368 4.368 0 00-.82-.164v-.123c0-.492-.178-.903-.534-1.23a1.605 1.605 0 00-1.23-.534c-.492 0-.916.178-1.271.533-.329.328-.493.739-.493 1.23v.123c-.273.028-.56.083-.861.165a8.97 8.97 0 00-.82.205zm6.481 27.48h1.928a5.381 5.381 0 01-1.928 2.543c-.875.656-1.887.985-3.035.985-1.148 0-2.174-.329-3.076-.985a5.134 5.134 0 01-1.887-2.543h1.928c.3.52.71.944 1.23 1.272A3.443 3.443 0 0028.5 44a3.37 3.37 0 001.764-.492c.547-.328.97-.752 1.271-1.272z" fill="#56504C"/></svg>