<svg width="48" height="48" fill="none" xmlns="http://www.w3.org/2000/svg"><path d="M38.906 16.012a7.934 7.934 0 010 2.355c-.093.774-.316 1.652-.668 2.637a30.092 30.092 0 01-1.898 4.219 36.495 36.495 0 01-2.742 4.289 44.84 44.84 0 01-3.586 4.254 57.694 57.694 0 01-4.395 4.148 2.489 2.489 0 01-.773.422 2.18 2.18 0 01-.844.176 2.18 2.18 0 01-.844-.176 2.489 2.489 0 01-.773-.422 57.694 57.694 0 01-4.395-4.148 48.077 48.077 0 01-3.55-4.254 36.496 36.496 0 01-2.743-4.29 27.91 27.91 0 01-1.933-4.218c-.328-.985-.551-1.863-.668-2.637a7.934 7.934 0 010-2.355 8.673 8.673 0 011.02-2.953 9.122 9.122 0 011.933-2.391 8.704 8.704 0 012.601-1.582 8.169 8.169 0 013.094-.598h.07a8.722 8.722 0 013.41.739A8.6 8.6 0 0124 11.125a9.139 9.139 0 012.777-1.898 8.908 8.908 0 013.41-.739h.072c1.078 0 2.11.2 3.094.598a8.158 8.158 0 012.601 1.582 9.122 9.122 0 011.934 2.39 8.672 8.672 0 011.02 2.954zm-2.074 4.5c.305-.89.504-1.664.598-2.32a6.93 6.93 0 000-1.97 7.282 7.282 0 00-.844-2.39 7.577 7.577 0 00-1.617-2.039 5.394 5.394 0 00-1.02-.738 5.046 5.046 0 00-1.125-.563 6.38 6.38 0 00-1.265-.351A5.982 5.982 0 0030.258 10h-.035a6.37 6.37 0 00-1.477.176 7.122 7.122 0 00-1.371.422 8.97 8.97 0 00-1.23.668 6.413 6.413 0 00-1.055.914L24 13.27l-1.055-1.09a5.784 5.784 0 00-1.09-.914 7.122 7.122 0 00-2.602-1.09 5.92 5.92 0 00-1.44-.176h-.071a6.31 6.31 0 00-1.3.14c-.422.07-.833.188-1.231.352-.399.14-.785.328-1.16.563-.352.21-.692.457-1.02.738a7.577 7.577 0 00-1.617 2.039 6.722 6.722 0 00-.809 2.39 6.143 6.143 0 00-.035 1.97c.094.656.305 1.43.633 2.32a28.857 28.857 0 001.793 4.043 36.335 36.335 0 002.637 4.078 43.19 43.19 0 001.652 2.11 71.408 71.408 0 001.828 2.038 83.48 83.48 0 002.04 2.04c.703.656 1.44 1.3 2.214 1.933a.83.83 0 00.281.176A.94.94 0 0024 37a.94.94 0 00.352-.07 1.4 1.4 0 00.316-.176 58.193 58.193 0 002.18-1.934c.703-.68 1.37-1.36 2.004-2.039a48.94 48.94 0 001.863-2.039 43.19 43.19 0 001.652-2.11 32.927 32.927 0 002.602-4.077 29.474 29.474 0 001.863-4.043zm-18.844-7.524c.61 0 1.184.117 1.723.352a4.53 4.53 0 011.477.984c.421.422.738.914.949 1.477.234.539.351 1.101.351 1.687a4.53 4.53 0 01-.351 1.758 4.17 4.17 0 01-.95 1.442 4.53 4.53 0 01-1.476.984 4.685 4.685 0 01-1.723.316 4.87 4.87 0 01-1.722-.316 4.64 4.64 0 01-1.442-.985 4.638 4.638 0 01-.984-1.44 4.528 4.528 0 01-.352-1.759c0-.586.117-1.148.352-1.687a4.53 4.53 0 01.984-1.477 4.64 4.64 0 011.442-.984 4.442 4.442 0 011.722-.352zm0 7.524c.844 0 1.559-.293 2.145-.88.586-.585.879-1.3.879-2.144 0-.82-.293-1.523-.88-2.11-.585-.585-1.3-.878-2.144-.878a2.88 2.88 0 00-2.11.879 2.877 2.877 0 00-.878 2.11c0 .843.293 1.558.879 2.144a2.877 2.877 0 002.11.879z" fill="#56504C"/></svg>