<svg width="56" height="57" viewBox="0 0 56 57" fill="none" xmlns="http://www.w3.org/2000/svg">
<path d="M28 10.9863C25.5938 10.9863 23.3242 11.4512 21.1914 12.3809C19.0586 13.2832 17.1992 14.5273 15.6133 16.1133C14.0273 17.6992 12.7832 19.5586 11.8809 21.6914C10.9512 23.8242 10.4863 26.0938 10.4863 28.5C10.4863 30.9062 10.9512 33.1758 11.8809 35.3086C12.7832 37.4414 14.0273 39.3008 15.6133 40.8867C17.1992 42.4727 19.0586 43.7168 21.1914 44.6191C23.3242 45.5488 25.5938 46.0137 28 46.0137C30.4062 46.0137 32.6758 45.5488 34.8086 44.6191C36.9414 43.7168 38.8008 42.4727 40.3867 40.8867C41.9727 39.3008 43.2168 37.4414 44.1191 35.3086C45.0488 33.1758 45.5137 30.9062 45.5137 28.5C45.5137 26.0938 45.0488 23.8242 44.1191 21.6914C43.2168 19.5586 41.9727 17.6992 40.3867 16.1133C38.8008 14.5273 36.9414 13.2832 34.8086 12.3809C32.6758 11.4512 30.4062 10.9863 28 10.9863ZM25.416 35.4727C25.3066 35.4727 25.1973 35.459 25.0879 35.4316C24.9785 35.377 24.8828 35.3086 24.8008 35.2266L19.5508 29.9766C19.3594 29.8125 19.25 29.6211 19.2227 29.4023C19.2227 29.1562 19.3047 28.9375 19.4688 28.7461C19.6328 28.582 19.8379 28.5 20.084 28.5C20.3301 28.4727 20.5352 28.541 20.6992 28.7051C20.7266 28.7051 20.7402 28.7188 20.7402 28.7461C20.7402 28.7461 20.7539 28.7461 20.7812 28.7461L25.416 33.3809L35.4238 23.4961C35.6152 23.332 35.8203 23.25 36.0391 23.25C36.2852 23.25 36.4902 23.3457 36.6543 23.5371C36.8184 23.7012 36.9004 23.9062 36.9004 24.1523C36.9004 24.3711 36.8184 24.5625 36.6543 24.7266L26.0312 35.2266C25.9492 35.3086 25.8535 35.377 25.7441 35.4316C25.6348 35.459 25.5254 35.4727 25.416 35.4727Z" fill="#EC7000"/>
</svg>
