<svg width="32" height="33" viewBox="0 0 32 33" fill="none" xmlns="http://www.w3.org/2000/svg">
<path d="M16 6.49219C14.625 6.49219 13.3281 6.75781 12.1094 7.28906C10.8906 7.80469 9.82812 8.51562 8.92188 9.42188C8.01562 10.3281 7.30469 11.3906 6.78906 12.6094C6.25781 13.8281 5.99219 15.125 5.99219 16.5C5.99219 17.875 6.25781 19.1719 6.78906 20.3906C7.30469 21.6094 8.01562 22.6719 8.92188 23.5781C9.82812 24.4844 10.8906 25.1953 12.1094 25.7109C13.3281 26.2422 14.625 26.5078 16 26.5078C17.375 26.5078 18.6719 26.2422 19.8906 25.7109C21.1094 25.1953 22.1719 24.4844 23.0781 23.5781C23.9844 22.6719 24.6953 21.6094 25.2109 20.3906C25.7422 19.1719 26.0078 17.875 26.0078 16.5C26.0078 15.125 25.7422 13.8281 25.2109 12.6094C24.6953 11.3906 23.9844 10.3281 23.0781 9.42188C22.1719 8.51562 21.1094 7.80469 19.8906 7.28906C18.6719 6.75781 17.375 6.49219 16 6.49219ZM14.5234 20.4844C14.4609 20.4844 14.3984 20.4766 14.3359 20.4609C14.2734 20.4297 14.2188 20.3906 14.1719 20.3438L11.1719 17.3438C11.0625 17.25 11 17.1406 10.9844 17.0156C10.9844 16.875 11.0312 16.75 11.125 16.6406C11.2188 16.5469 11.3359 16.5 11.4766 16.5C11.6172 16.4844 11.7344 16.5234 11.8281 16.6172C11.8438 16.6172 11.8516 16.625 11.8516 16.6406C11.8516 16.6406 11.8594 16.6406 11.875 16.6406L14.5234 19.2891L20.2422 13.6406C20.3516 13.5469 20.4688 13.5 20.5938 13.5C20.7344 13.5 20.8516 13.5547 20.9453 13.6641C21.0391 13.7578 21.0859 13.875 21.0859 14.0156C21.0859 14.1406 21.0391 14.25 20.9453 14.3438L14.875 20.3438C14.8281 20.3906 14.7734 20.4297 14.7109 20.4609C14.6484 20.4766 14.5859 20.4844 14.5234 20.4844Z" fill="#008859"/>
</svg>
