<svg width="24" height="24" viewBox="0 0 24 24" fill="none" xmlns="http://www.w3.org/2000/svg">
<path d="M6.9375 6.2666V11.3291H7.80469V9.57129H7.875C7.98438 9.74316 8.11719 9.87598 8.27344 9.96973C8.44531 10.0479 8.63281 10.0869 8.83594 10.0869C8.97656 10.0869 9.10938 10.0713 9.23438 10.04C9.375 9.99316 9.50781 9.93066 9.63281 9.85254C9.74219 9.77441 9.84375 9.68066 9.9375 9.57129C10.0312 9.46191 10.1094 9.3291 10.1719 9.17285C10.2344 9.03223 10.2812 8.87598 10.3125 8.7041C10.3594 8.5166 10.3828 8.32129 10.3828 8.11816C10.3828 7.93066 10.3672 7.75098 10.3359 7.5791C10.3047 7.40723 10.2578 7.25098 10.1953 7.11035C10.1328 6.9541 10.0547 6.82129 9.96094 6.71191C9.88281 6.60254 9.78906 6.50879 9.67969 6.43066C9.55469 6.33691 9.42188 6.27441 9.28125 6.24316C9.15625 6.19629 9.01562 6.17285 8.85938 6.17285C8.75 6.17285 8.64062 6.18848 8.53125 6.21973C8.4375 6.25098 8.34375 6.29004 8.25 6.33691C8.15625 6.39941 8.07031 6.46973 7.99219 6.54785C7.92969 6.62598 7.875 6.71191 7.82812 6.80566H7.75781L7.6875 6.2666H6.9375ZM8.625 9.38379C8.5 9.38379 8.38281 9.36035 8.27344 9.31348C8.17969 9.25098 8.09375 9.16504 8.01562 9.05566C7.9375 8.93066 7.875 8.79785 7.82812 8.65723C7.79688 8.50098 7.78125 8.32129 7.78125 8.11816C7.78125 7.93066 7.79688 7.7666 7.82812 7.62598C7.875 7.46973 7.9375 7.33691 8.01562 7.22754C8.09375 7.11816 8.17969 7.04004 8.27344 6.99316C8.38281 6.93066 8.5 6.89941 8.625 6.89941C8.76562 6.89941 8.89062 6.93066 9 6.99316C9.10938 7.04004 9.19531 7.11816 9.25781 7.22754C9.35156 7.33691 9.41406 7.46973 9.44531 7.62598C9.49219 7.7666 9.51562 7.93848 9.51562 8.1416C9.51562 8.3291 9.49219 8.50098 9.44531 8.65723C9.41406 8.81348 9.35938 8.94629 9.28125 9.05566C9.20312 9.16504 9.10938 9.25098 9 9.31348C8.89062 9.36035 8.76562 9.38379 8.625 9.38379ZM12.3516 10.0869C12.4609 10.0869 12.5703 10.0791 12.6797 10.0635C12.7891 10.0322 12.8828 9.99316 12.9609 9.94629C13.0547 9.88379 13.1406 9.81348 13.2188 9.73535C13.2969 9.65723 13.3594 9.57129 13.4062 9.47754H13.4766L13.5234 9.99316H14.2734V4.81348H13.4062V6.71191H13.3359C13.2891 6.61816 13.2266 6.54004 13.1484 6.47754C13.0859 6.41504 13.0078 6.36035 12.9141 6.31348C12.8359 6.2666 12.75 6.23535 12.6562 6.21973C12.5781 6.18848 12.4844 6.17285 12.375 6.17285C12.1406 6.17285 11.9297 6.21973 11.7422 6.31348C11.5547 6.40723 11.3906 6.54004 11.25 6.71191C11.1094 6.89941 11 7.11035 10.9219 7.34473C10.8594 7.5791 10.8281 7.84473 10.8281 8.1416C10.8281 8.43848 10.8594 8.71191 10.9219 8.96191C11 9.19629 11.1094 9.39941 11.25 9.57129C11.3906 9.74316 11.5469 9.87598 11.7188 9.96973C11.9062 10.0479 12.1172 10.0869 12.3516 10.0869ZM12.5859 9.38379C12.4453 9.38379 12.3203 9.36035 12.2109 9.31348C12.1016 9.25098 12.0078 9.16504 11.9297 9.05566C11.8516 8.94629 11.7891 8.81348 11.7422 8.65723C11.7109 8.50098 11.6953 8.3291 11.6953 8.1416C11.6953 7.93848 11.7109 7.7666 11.7422 7.62598C11.7891 7.46973 11.8516 7.33691 11.9297 7.22754C12.0078 7.11816 12.1016 7.04004 12.2109 6.99316C12.3203 6.93066 12.4453 6.89941 12.5859 6.89941C12.7109 6.89941 12.8203 6.93066 12.9141 6.99316C13.0234 7.04004 13.1172 7.11816 13.1953 7.22754C13.2734 7.33691 13.3281 7.46973 13.3594 7.62598C13.4062 7.78223 13.4297 7.9541 13.4297 8.1416C13.4297 8.3291 13.4062 8.50098 13.3594 8.65723C13.3281 8.81348 13.2734 8.94629 13.1953 9.05566C13.1172 9.16504 13.0234 9.25098 12.9141 9.31348C12.8203 9.36035 12.7109 9.38379 12.5859 9.38379ZM15.4688 6.94629V9.99316H16.3359V6.94629H17.3438V6.2666H16.3359V6.10254C16.3359 5.88379 16.3906 5.71973 16.5 5.61035C16.6094 5.48535 16.7734 5.42285 16.9922 5.42285C17.0703 5.42285 17.1484 5.43066 17.2266 5.44629C17.3047 5.46191 17.3828 5.47754 17.4609 5.49316V4.81348C17.3828 4.78223 17.2969 4.75879 17.2031 4.74316C17.1094 4.72754 17.0156 4.71973 16.9219 4.71973C16.6875 4.71973 16.4766 4.75098 16.2891 4.81348C16.1172 4.87598 15.9688 4.96973 15.8438 5.09473C15.7188 5.21973 15.625 5.36816 15.5625 5.54004C15.5 5.71191 15.4688 5.91504 15.4688 6.14941V6.2666H14.8125V6.94629H15.4688ZM7.00781 14.4932C7.00781 14.6338 7.05469 14.7588 7.14844 14.8682C7.24219 14.9619 7.35938 15.0088 7.5 15.0088H16.5C16.6406 15.0088 16.7578 14.9619 16.8516 14.8682C16.9453 14.7588 16.9922 14.6338 16.9922 14.4932C16.9922 14.3525 16.9453 14.2354 16.8516 14.1416C16.7578 14.0479 16.6406 14.001 16.5 14.001H7.5C7.35938 14.001 7.24219 14.0479 7.14844 14.1416C7.05469 14.2354 7.00781 14.3525 7.00781 14.4932ZM7.00781 17.4932C7.00781 17.6338 7.05469 17.7588 7.14844 17.8682C7.24219 17.9619 7.35938 18.0088 7.5 18.0088H16.5C16.6406 18.0088 16.7578 17.9619 16.8516 17.8682C16.9453 17.7588 16.9922 17.6338 16.9922 17.4932C16.9922 17.3525 16.9453 17.2354 16.8516 17.1416C16.7578 17.0479 16.6406 17.001 16.5 17.001H7.5C7.35938 17.001 7.24219 17.0479 7.14844 17.1416C7.05469 17.2354 7.00781 17.3525 7.00781 17.4932ZM4.00781 2.00098C4.00781 1.71973 4.10156 1.48535 4.28906 1.29785C4.49219 1.09473 4.72656 0.993164 4.99219 0.993164H19.0078C19.2734 0.993164 19.5 1.09473 19.6875 1.29785C19.8906 1.48535 19.9922 1.71973 19.9922 2.00098V20.001C19.9922 20.2822 19.8906 20.5166 19.6875 20.7041C19.5 20.9072 19.2734 21.0088 19.0078 21.0088H4.99219C4.72656 21.0088 4.49219 20.9072 4.28906 20.7041C4.10156 20.5166 4.00781 20.2822 4.00781 20.001V2.00098ZM4.99219 2.00098V20.001H19.0078V2.00098H4.99219Z" fill="#007AB7"/>
</svg>
