<svg width="24" height="25" viewBox="0 0 24 25" fill="none" xmlns="http://www.w3.org/2000/svg">
<path d="M5.79492 6.50586C5.63086 6.50586 5.49609 6.57617 5.39062 6.7168C5.28516 6.85742 5.24414 7.04492 5.26758 7.2793C5.26758 7.2793 5.26758 7.28516 5.26758 7.29688L5.91797 10.9004C5.91797 10.9355 5.93555 10.9707 5.9707 11.0059C6.00586 11.0293 6.04102 11.041 6.07617 11.041C6.07617 11.041 6.3457 11.082 6.88477 11.1641C7.43555 11.2344 8.0332 11.3164 8.67773 11.4102C9.33398 11.4922 9.93164 11.5684 10.4707 11.6387C11.0098 11.709 11.2793 11.7441 11.2793 11.7441C11.7363 11.8496 11.9707 12.0957 11.9824 12.4824C12.0059 12.8691 11.7715 13.1211 11.2793 13.2383C11.2793 13.2383 11.0098 13.2793 10.4707 13.3613C9.93164 13.4434 9.33398 13.5371 8.67773 13.6426C8.0332 13.7363 7.43555 13.8242 6.88477 13.9062C6.3457 13.9766 6.07617 14.0117 6.07617 14.0117C6.04102 14.0234 6.00586 14.0469 5.9707 14.082C5.93555 14.1055 5.91797 14.1348 5.91797 14.1699C5.88281 14.334 5.83008 14.6152 5.75977 15.0137C5.68945 15.4004 5.61914 15.793 5.54883 16.1914C5.47852 16.5898 5.41406 16.9414 5.35547 17.2461C5.29688 17.5625 5.26758 17.7207 5.26758 17.7207C5.2207 17.9434 5.25 18.1309 5.35547 18.2832C5.46094 18.4238 5.60156 18.4941 5.77734 18.4941C5.8125 18.4941 5.84766 18.4941 5.88281 18.4941C5.92969 18.4824 5.9707 18.4707 6.00586 18.459C6.01758 18.459 6.02344 18.4531 6.02344 18.4414L17.6777 12.6934C17.748 12.6582 17.7832 12.6055 17.7832 12.5352C17.7832 12.4648 17.748 12.4121 17.6777 12.377L6.00586 6.54102C6.00586 6.54102 6 6.54102 5.98828 6.54102C5.95312 6.5293 5.91797 6.52344 5.88281 6.52344C5.85938 6.51172 5.83008 6.50586 5.79492 6.50586ZM5.79492 5.75C5.86523 5.75 5.93555 5.75586 6.00586 5.76758C6.08789 5.7793 6.16992 5.79688 6.25195 5.82031C6.26367 5.83203 6.27539 5.84375 6.28711 5.85547C6.31055 5.85547 6.32812 5.85547 6.33984 5.85547L18.3281 11.8672C18.457 11.9258 18.5566 12.0195 18.627 12.1484C18.709 12.2656 18.75 12.3945 18.75 12.5352C18.75 12.6758 18.709 12.8105 18.627 12.9395C18.5566 13.0566 18.457 13.1445 18.3281 13.2031L6.35742 19.127C6.3457 19.127 6.33398 19.1328 6.32227 19.1445C6.31055 19.1445 6.29883 19.1504 6.28711 19.1621C6.20508 19.1855 6.11719 19.209 6.02344 19.2324C5.94141 19.2441 5.85938 19.25 5.77734 19.25C5.58984 19.25 5.4082 19.209 5.23242 19.127C5.06836 19.0449 4.92188 18.9277 4.79297 18.7754C4.66406 18.623 4.57617 18.4414 4.5293 18.2305C4.48242 18.0195 4.48242 17.8027 4.5293 17.5801C4.54102 17.498 4.62891 17.0176 4.79297 16.1387C4.95703 15.2598 5.0918 14.5156 5.19727 13.9062C5.23242 13.7422 5.30859 13.6074 5.42578 13.502C5.54297 13.3848 5.68359 13.3145 5.84766 13.291C5.84766 13.291 6.0293 13.2676 6.39258 13.2207C6.74414 13.1855 7.18359 13.1387 7.71094 13.0801C8.25 13.0098 8.82422 12.9395 9.43359 12.8691C10.043 12.7988 10.5996 12.7344 11.1035 12.6758C11.209 12.6641 11.2559 12.6055 11.2441 12.5C11.2441 12.3945 11.1973 12.3418 11.1035 12.3418C10.5996 12.2832 10.043 12.2246 9.43359 12.166C8.82422 12.0957 8.25586 12.0371 7.72852 11.9902C7.20117 11.9316 6.75586 11.8789 6.39258 11.832C6.04102 11.7969 5.86523 11.7793 5.86523 11.7793C5.70117 11.7676 5.55469 11.7031 5.42578 11.5859C5.30859 11.4688 5.23242 11.3281 5.19727 11.1641L4.5293 7.41992C4.5293 7.4082 4.5293 7.40234 4.5293 7.40234C4.5293 7.39062 4.5293 7.38477 4.5293 7.38477C4.49414 7.15039 4.50586 6.92773 4.56445 6.7168C4.62305 6.50586 4.72266 6.32422 4.86328 6.17188C4.98047 6.03125 5.11523 5.92578 5.26758 5.85547C5.43164 5.78516 5.60742 5.75 5.79492 5.75Z" fill="#003399"/>
</svg>
