<svg width="15" height="17" viewBox="0 0 15 17" fill="none" xmlns="http://www.w3.org/2000/svg">
<path d="M14.1895 1.64453C14.1895 1.64453 14.1836 1.63867 14.1719 1.62695C14.1719 1.61523 14.1719 1.60352 14.1719 1.5918C14.1484 1.55664 14.125 1.52148 14.1016 1.48633C14.0781 1.45117 14.0547 1.41016 14.0312 1.36328C14.0195 1.36328 14.0137 1.36328 14.0137 1.36328C14.0137 1.35156 14.0137 1.3457 14.0137 1.3457C13.9902 1.31055 13.9668 1.28125 13.9434 1.25781C13.9199 1.22266 13.8965 1.19336 13.873 1.16992C13.8613 1.1582 13.8496 1.14648 13.8379 1.13477C13.8262 1.12305 13.8203 1.11133 13.8203 1.09961C13.5742 0.841797 13.2812 0.636719 12.9414 0.484375C12.6133 0.332031 12.2559 0.255859 11.8691 0.255859C11.4941 0.255859 11.1367 0.332031 10.7969 0.484375C10.457 0.636719 10.1699 0.841797 9.93555 1.09961C9.92383 1.11133 9.91211 1.12305 9.90039 1.13477C9.90039 1.14648 9.89453 1.1582 9.88281 1.16992C9.85938 1.19336 9.83594 1.22266 9.8125 1.25781C9.78906 1.28125 9.76562 1.31055 9.74219 1.3457C9.74219 1.3457 9.73633 1.35156 9.72461 1.36328C9.70117 1.41016 9.67773 1.45117 9.6543 1.48633C9.63086 1.52148 9.60742 1.55664 9.58398 1.5918C9.57227 1.60352 9.56641 1.61523 9.56641 1.62695C9.56641 1.63867 9.56055 1.64453 9.54883 1.64453C9.45508 1.83203 9.37891 2.03125 9.32031 2.24219C9.27344 2.44141 9.25 2.65234 9.25 2.875C9.25 2.88672 9.25 2.89844 9.25 2.91016C9.25 2.92188 9.25 2.93359 9.25 2.94531C9.25 2.94531 9.25 2.95117 9.25 2.96289C9.25 2.96289 9.25 2.96875 9.25 2.98047C9.25 2.99219 9.25 2.99805 9.25 2.99805C9.25 3.00977 9.25 3.01562 9.25 3.01562C9.25 3.01562 9.25 3.02148 9.25 3.0332C9.25 3.0332 9.25 3.03906 9.25 3.05078C9.25 3.05078 9.25 3.05664 9.25 3.06836C9.25 3.06836 9.25 3.07422 9.25 3.08594C9.26172 3.09766 9.26758 3.10938 9.26758 3.12109C9.26758 3.12109 9.26758 3.12695 9.26758 3.13867C9.26758 3.13867 9.26758 3.14453 9.26758 3.15625C9.26758 3.16797 9.26758 3.17969 9.26758 3.19141C9.26758 3.19141 9.26758 3.19727 9.26758 3.20898C9.26758 3.20898 9.26758 3.21484 9.26758 3.22656C9.26758 3.22656 9.26758 3.23242 9.26758 3.24414C9.26758 3.24414 9.26758 3.25 9.26758 3.26172C9.26758 3.26172 9.26758 3.26758 9.26758 3.2793C9.2793 3.2793 9.28516 3.2793 9.28516 3.2793C9.28516 3.29102 9.28516 3.30273 9.28516 3.31445C9.28516 3.31445 9.28516 3.32031 9.28516 3.33203C9.28516 3.34375 9.28516 3.34961 9.28516 3.34961C9.28516 3.34961 9.28516 3.35547 9.28516 3.36719C9.29688 3.36719 9.30273 3.37305 9.30273 3.38477C9.30273 3.38477 9.30273 3.39062 9.30273 3.40234C9.30273 3.40234 9.30273 3.4082 9.30273 3.41992C9.30273 3.43164 9.30273 3.4375 9.30273 3.4375C9.30273 3.4375 9.30859 3.44336 9.32031 3.45508C9.32031 3.45508 9.32031 3.46094 9.32031 3.47266C9.32031 3.47266 9.32031 3.47852 9.32031 3.49023C9.32031 3.49023 9.32031 3.49609 9.32031 3.50781C9.33203 3.51953 9.33789 3.52539 9.33789 3.52539C9.33789 3.52539 9.33789 3.53125 9.33789 3.54297C9.33789 3.54297 9.33789 3.54883 9.33789 3.56055C9.33789 3.57227 9.33789 3.58398 9.33789 3.5957C9.34961 3.5957 9.35547 3.5957 9.35547 3.5957C9.35547 3.60742 9.35547 3.61328 9.35547 3.61328C9.35547 3.61328 9.35547 3.61914 9.35547 3.63086C9.36719 3.64258 9.37305 3.66016 9.37305 3.68359C9.38477 3.70703 9.39648 3.73047 9.4082 3.75391C9.4082 3.75391 9.4082 3.75977 9.4082 3.77148C9.4082 3.77148 9.4082 3.77734 9.4082 3.78906C9.41992 3.78906 9.42578 3.79492 9.42578 3.80664C9.42578 3.80664 9.42578 3.8125 9.42578 3.82422C9.42578 3.82422 9.42578 3.83008 9.42578 3.8418C9.4375 3.8418 9.44336 3.84766 9.44336 3.85938C9.44336 3.85938 9.44336 3.86523 9.44336 3.87695C9.45508 3.87695 9.46094 3.88281 9.46094 3.89453C9.46094 3.90625 9.46094 3.91211 9.46094 3.91211C9.46094 3.91211 9.46094 3.91797 9.46094 3.92969C9.47266 3.92969 9.47852 3.92969 9.47852 3.92969C9.47852 3.92969 9.47852 3.93555 9.47852 3.94727C9.47852 3.94727 9.48438 3.95312 9.49609 3.96484C9.50781 4 9.51953 4.03516 9.53125 4.07031C9.55469 4.10547 9.57227 4.13477 9.58398 4.1582C9.5957 4.16992 9.60156 4.18164 9.60156 4.19336C9.60156 4.19336 9.60742 4.19922 9.61914 4.21094C9.61914 4.22266 9.61914 4.23438 9.61914 4.24609C9.63086 4.24609 9.64258 4.25195 9.6543 4.26367C9.67773 4.31055 9.70117 4.35742 9.72461 4.4043C9.75977 4.43945 9.79492 4.48047 9.83008 4.52734V10.1699L11.8691 8.5L13.9082 10.1699V4.52734C13.9434 4.48047 13.9785 4.43945 14.0137 4.4043C14.0488 4.35742 14.0781 4.31055 14.1016 4.26367C14.1133 4.25195 14.1191 4.24609 14.1191 4.24609C14.1191 4.23438 14.125 4.22266 14.1367 4.21094C14.1367 4.19922 14.1367 4.19336 14.1367 4.19336C14.1484 4.18164 14.1543 4.16992 14.1543 4.1582C14.1543 4.1582 14.1602 4.1582 14.1719 4.1582C14.1836 4.13477 14.1953 4.10547 14.207 4.07031C14.2305 4.03516 14.248 4.00586 14.2598 3.98242C14.2598 3.9707 14.2598 3.96484 14.2598 3.96484C14.2715 3.96484 14.2773 3.95898 14.2773 3.94727C14.2773 3.93555 14.2773 3.92969 14.2773 3.92969C14.2891 3.91797 14.2949 3.91211 14.2949 3.91211C14.2949 3.91211 14.2949 3.90625 14.2949 3.89453C14.2949 3.88281 14.3008 3.87695 14.3125 3.87695C14.3125 3.86523 14.3125 3.85938 14.3125 3.85938C14.3125 3.84766 14.3125 3.8418 14.3125 3.8418C14.3242 3.83008 14.3301 3.82422 14.3301 3.82422C14.3301 3.8125 14.3301 3.80664 14.3301 3.80664C14.3418 3.79492 14.3477 3.78906 14.3477 3.78906C14.3477 3.77734 14.3477 3.77148 14.3477 3.77148C14.3477 3.75977 14.3477 3.75391 14.3477 3.75391C14.3594 3.73047 14.3652 3.71289 14.3652 3.70117C14.377 3.67773 14.3887 3.6543 14.4004 3.63086C14.4004 3.61914 14.4004 3.61328 14.4004 3.61328C14.4004 3.61328 14.4004 3.60742 14.4004 3.5957C14.4004 3.58398 14.4062 3.57812 14.418 3.57812C14.418 3.56641 14.418 3.56055 14.418 3.56055C14.418 3.54883 14.418 3.54297 14.418 3.54297C14.418 3.53125 14.4238 3.51953 14.4355 3.50781C14.4355 3.49609 14.4355 3.49023 14.4355 3.49023C14.4355 3.47852 14.4355 3.47266 14.4355 3.47266C14.4355 3.46094 14.4355 3.45508 14.4355 3.45508C14.4473 3.44336 14.4531 3.43164 14.4531 3.41992C14.4531 3.4082 14.4531 3.40234 14.4531 3.40234C14.4531 3.39062 14.4531 3.38477 14.4531 3.38477C14.4531 3.37305 14.459 3.36719 14.4707 3.36719C14.4707 3.35547 14.4707 3.34961 14.4707 3.34961C14.4707 3.34961 14.4707 3.34375 14.4707 3.33203C14.4707 3.33203 14.4707 3.32617 14.4707 3.31445C14.4707 3.30273 14.4707 3.29102 14.4707 3.2793C14.4824 3.26758 14.4883 3.26172 14.4883 3.26172C14.4883 3.25 14.4883 3.24414 14.4883 3.24414C14.4883 3.23242 14.4883 3.22656 14.4883 3.22656C14.4883 3.21484 14.4883 3.20898 14.4883 3.20898C14.4883 3.20898 14.4883 3.20312 14.4883 3.19141C14.4883 3.17969 14.4883 3.16797 14.4883 3.15625C14.4883 3.14453 14.4883 3.13867 14.4883 3.13867C14.4883 3.12695 14.4883 3.12109 14.4883 3.12109C14.4883 3.10938 14.4941 3.09766 14.5059 3.08594C14.5059 3.07422 14.5059 3.06836 14.5059 3.06836C14.5059 3.05664 14.5059 3.05078 14.5059 3.05078C14.5059 3.03906 14.5059 3.0332 14.5059 3.0332C14.5059 3.02148 14.5059 3.01562 14.5059 3.01562C14.5059 3.01562 14.5059 3.00977 14.5059 2.99805C14.5059 2.98633 14.5059 2.97461 14.5059 2.96289C14.5059 2.95117 14.5059 2.94531 14.5059 2.94531C14.5059 2.93359 14.5059 2.92188 14.5059 2.91016C14.5059 2.89844 14.5059 2.88672 14.5059 2.875C14.5059 2.65234 14.4766 2.44141 14.418 2.24219C14.3711 2.03125 14.2949 1.83203 14.1895 1.64453ZM13.1699 8.58789L11.8691 7.5332L11.3945 7.91992L10.5859 8.58789V5.16016C10.7734 5.26562 10.9727 5.34766 11.1836 5.40625C11.4062 5.46484 11.6348 5.49414 11.8691 5.49414C12.1035 5.49414 12.332 5.46484 12.5547 5.40625C12.7773 5.34766 12.9824 5.26562 13.1699 5.16016V8.58789ZM13.75 2.94531C13.75 2.94531 13.75 2.95117 13.75 2.96289C13.75 2.97461 13.75 2.98633 13.75 2.99805C13.75 3.00977 13.75 3.02148 13.75 3.0332C13.75 3.0332 13.75 3.03906 13.75 3.05078C13.75 3.0625 13.7441 3.06836 13.7324 3.06836C13.7324 3.06836 13.7324 3.07422 13.7324 3.08594C13.6855 3.55469 13.4805 3.95312 13.1172 4.28125C12.7656 4.59766 12.3496 4.75586 11.8691 4.75586C11.3887 4.75586 10.9727 4.59766 10.6211 4.28125C10.2695 3.95312 10.0645 3.55469 10.0059 3.08594C10.0059 3.07422 10.0059 3.0625 10.0059 3.05078C10.0059 3.03906 10.0059 3.0332 10.0059 3.0332C10.0059 3.02148 10.0059 3.00977 10.0059 2.99805C10.0059 2.98633 10.0059 2.97461 10.0059 2.96289C10.0059 2.95117 10.0059 2.94531 10.0059 2.94531C10.0059 2.93359 10.0059 2.92188 10.0059 2.91016C10.0059 2.89844 10.0059 2.88672 10.0059 2.875C10.0059 2.35938 10.1875 1.91992 10.5508 1.55664C10.9141 1.18164 11.3535 0.994141 11.8691 0.994141C12.3848 0.994141 12.8242 1.18164 13.1875 1.55664C13.5625 1.91992 13.75 2.35938 13.75 2.875C13.75 2.88672 13.75 2.89844 13.75 2.91016C13.75 2.92188 13.75 2.93359 13.75 2.94531ZM8.49414 11.5059H2.86914C2.77539 11.5059 2.6875 11.4707 2.60547 11.4004C2.53516 11.3184 2.5 11.2246 2.5 11.1191C2.5 11.0254 2.53516 10.9434 2.60547 10.873C2.6875 10.791 2.77539 10.75 2.86914 10.75H8.49414V11.5059ZM2.86914 13H8.49414V13.7559H2.86914C2.77539 13.7559 2.6875 13.7207 2.60547 13.6504C2.53516 13.5684 2.5 13.4746 2.5 13.3691C2.5 13.2754 2.53516 13.1934 2.60547 13.123C2.6875 13.041 2.77539 13 2.86914 13ZM11.8691 9.4668L12.2559 9.76562V15.25C12.2559 15.4609 12.1797 15.6367 12.0273 15.7773C11.8867 15.9297 11.7109 16.0059 11.5 16.0059H1.00586C0.794922 16.0059 0.613281 15.9297 0.460938 15.7773C0.320312 15.6367 0.25 15.4609 0.25 15.25V2.50586C0.25 2.29492 0.320312 2.11914 0.460938 1.97852C0.613281 1.82617 0.794922 1.75 1.00586 1.75H8.6875C8.6875 1.75 8.6875 1.75586 8.6875 1.76758C8.6875 1.7793 8.68164 1.79102 8.66992 1.80273C8.66992 1.81445 8.66992 1.82617 8.66992 1.83789C8.6582 1.86133 8.64648 1.87891 8.63477 1.89062C8.63477 1.90234 8.63477 1.91406 8.63477 1.92578C8.61133 2.01953 8.58789 2.11328 8.56445 2.20703C8.54102 2.30078 8.5293 2.40039 8.5293 2.50586H1.00586V15.25H11.5V9.7832L11.8691 9.4668Z" fill="#003399"/>
</svg>
