<svg width="38" height="34" viewBox="0 0 38 34" fill="none" xmlns="http://www.w3.org/2000/svg">
<path d="M35.8574 26.7402L21.9941 2.5C21.3379 1.32422 20.3398 0.736328 19 0.736328C17.6602 0.736328 16.6621 1.32422 16.0059 2.5L2.14258 26.7402C1.21289 28.3535 1.21289 29.9668 2.14258 31.5801C3.09961 33.1934 4.50781 34 6.36719 34H31.6328C33.4922 34 34.8867 33.1934 35.8164 31.5801C36.7734 29.9668 36.7871 28.3535 35.8574 26.7402ZM18.1387 13H19.8613V23.5H18.1387V13ZM19 27.8887C18.6445 27.8887 18.3301 27.7656 18.0566 27.5195C17.8105 27.2461 17.6875 26.9316 17.6875 26.5762C17.6875 26.1934 17.8105 25.8789 18.0566 25.6328C18.3301 25.3867 18.6445 25.2637 19 25.2637C19.3555 25.2637 19.6562 25.3867 19.9023 25.6328C20.1758 25.8789 20.3125 26.1934 20.3125 26.5762C20.3125 26.9316 20.1758 27.2461 19.9023 27.5195C19.6562 27.7656 19.3555 27.8887 19 27.8887Z" fill="#B71C1C"/>
</svg>
