<svg width="21" height="19" viewBox="0 0 21 19" fill="none" xmlns="http://www.w3.org/2000/svg">
<path d="M20.1641 14.8359L12.2422 0.984375C11.8672 0.328125 11.2969 0 10.5313 0C9.76563 0 9.19531 0.328125 8.82031 0.984375L0.898438 14.8359C0.367188 15.7578 0.367188 16.6797 0.898438 17.6016C1.44531 18.5234 2.25 18.9844 3.3125 18.9844H17.75C18.8125 18.9844 19.6094 18.5234 20.1406 17.6016C20.6875 16.6797 20.6953 15.7578 20.1641 14.8359ZM10.0391 6.98438H11.0234V12.9844H10.0391V6.98438ZM10.5313 15.4922C10.3281 15.4922 10.1484 15.4219 9.99219 15.2812C9.85156 15.125 9.78125 14.9453 9.78125 14.7422C9.78125 14.5391 9.85156 14.3672 9.99219 14.2266C10.1484 14.0703 10.3281 13.9922 10.5313 13.9922C10.7344 13.9922 10.9063 14.0703 11.0469 14.2266C11.2031 14.3672 11.2813 14.5391 11.2813 14.7422C11.2813 14.9453 11.2031 15.125 11.0469 15.2812C10.9063 15.4219 10.7344 15.4922 10.5313 15.4922Z" fill="white"/>
</svg>
