<svg width="24" height="24" viewBox="0 0 24 24" fill="none" xmlns="http://www.w3.org/2000/svg">
<path d="M14.8652 17.4883C14.959 17.582 15.0059 17.6934 15.0059 17.8223C15.0059 17.9395 14.959 18.0449 14.8652 18.1387C14.7715 18.2207 14.6602 18.2617 14.5312 18.2617C14.4141 18.25 14.3145 18.2031 14.2324 18.1211L8.90625 12.7773C8.75391 12.6367 8.67773 12.4609 8.67773 12.25C8.67773 12.0391 8.75391 11.8633 8.90625 11.7227L14.25 6.37891C14.332 6.29688 14.4316 6.25586 14.5488 6.25586C14.6777 6.25586 14.7832 6.29688 14.8652 6.37891C14.959 6.47266 15.0059 6.58398 15.0059 6.71289C15.0059 6.83008 14.959 6.92969 14.8652 7.01172L9.62695 12.25L14.8652 17.4883Z" fill="#003399"/>
</svg>
