<svg width="158" height="46" viewBox="0 0 158 46" fill="none" xmlns="http://www.w3.org/2000/svg">
<path d="M27.8071 0.763672H0.197266V28.6131H27.8071V0.763672Z" fill="url(#paint0_linear_399_35814)"/>
<path d="M27.2323 1.25049H0.698242V27.7039H27.2323V1.25049Z" fill="url(#paint1_linear_399_35814)"/>
<path d="M24.6965 3.85498H13.7119V13.2222H24.6965V3.85498Z" fill="url(#paint2_linear_399_35814)"/>
<path d="M9.24625 16.8999H2.86133V24.66H9.24625V16.8999Z" fill="url(#paint3_linear_399_35814)"/>
<path d="M15.5899 9.35059H4.70996V16.0959H15.5899V9.35059Z" fill="url(#paint4_linear_399_35814)"/>
<path d="M16.6782 21.252H10.7119V25.2405H16.6782V21.252Z" fill="url(#paint5_linear_399_35814)"/>
<path d="M21.7248 8.08989C20.021 9.09875 19.4976 9.18674 17.6426 10.3012C18.7242 9.12222 19.0964 8.61778 19.7651 7.63238C18.0555 7.72036 15.5725 7.93152 13.8047 8.32451C15.3457 7.4916 18.4044 6.57072 20.021 6.34783C19.6488 5.8258 16.6192 4.17172 15.8632 3.84912C18.2648 4.03682 21.1956 4.94011 22.6145 5.81993C23.1727 5.64397 23.7542 5.63224 24.7951 5.53839C24.5276 5.9959 24.5218 6.26571 23.4984 6.94611C23.7833 7.70863 23.103 11.9083 22.5447 13.0169C22.5273 11.269 22.3761 9.05183 21.7248 8.08989Z" fill="white"/>
<path d="M9.2459 23.1467C8.26897 22.7771 7.55953 22.3548 6.78613 21.6216C7.01873 20.9764 7.28622 20.472 7.71654 19.8209C6.91988 19.9382 6.33256 20.0321 5.64638 20.1611C5.08814 19.1757 4.83227 18.2255 4.54734 16.8999C4.39614 18.3018 4.33799 19.3048 4.53571 20.4192C3.90768 20.5952 3.45992 20.7477 2.94238 20.9882C3.66926 21.4339 4.25658 21.78 5.06488 22.1613C5.501 23.1056 5.94876 23.7391 6.68146 24.4664C6.51282 23.8505 6.4663 23.3578 6.53608 22.7068C7.44323 22.9766 8.21663 23.1115 9.2459 23.1467Z" fill="white"/>
<path d="M11.7992 9.18652C11.4968 9.58538 11.1421 10.3303 11.0432 10.6764C13.5669 11.0224 15.5906 12.3304 15.5906 12.3304C13.3867 11.9374 12.2237 11.9844 11.3979 12.0606C10.578 12.1369 10.4094 12.2366 10.4094 12.2366C9.81624 13.5505 9.45571 15.8146 9.45571 15.8146C9.05447 14.835 8.47296 12.8818 8.47296 12.8818C7.36229 13.4801 4.79785 15.9143 4.79785 15.9143C6.20509 13.0695 7.6356 11.7732 7.6356 11.7732C7.14132 11.2688 5.85619 11.0224 4.91415 10.9755C5.40262 10.7761 6.65867 10.5415 7.62397 10.4945C8.58926 10.4652 9.17658 10.5239 9.17658 10.5239C10.0372 9.83173 11.3456 9.25104 11.7992 9.18652Z" fill="white"/>
<path d="M14.4739 21.381C14.0262 21.991 13.6424 22.472 13.1539 23.0292C12.3049 23.2697 11.6246 23.3577 10.7988 23.3577C11.3047 23.6216 11.799 23.78 12.3282 23.8914C11.799 24.3724 11.3513 24.7185 10.8337 25.0528C11.6943 24.8475 12.8283 24.478 13.6773 23.9735C14.1192 23.9911 14.5321 23.9618 14.8345 23.9032C14.7531 23.6451 14.7065 23.4515 14.6426 23.1172C15.4392 22.4954 16.0149 21.9323 16.6778 21.2578C15.9742 21.7505 15.3636 22.1259 14.5495 22.513C14.5146 22.1318 14.4914 21.8092 14.4739 21.381Z" fill="white"/>
<path d="M3.29132 37.8631C3.22154 37.2648 3.07616 36.6841 2.22135 36.6841C1.69218 36.6841 1.23861 36.9422 1.23861 37.5405C1.23861 38.9482 4.39618 38.9424 4.39618 40.966C4.39618 42.2564 3.51229 42.9016 2.22135 42.9016C1.30839 42.9016 0.500094 42.4969 0 41.9103L0.52917 41.095C0.971113 41.6112 1.63984 41.9103 2.26787 41.9103C2.87845 41.9103 3.30295 41.6698 3.30295 41.0891C3.30295 39.828 0.157006 39.7694 0.157006 37.6285C0.157006 36.3205 1.13393 35.7046 2.23298 35.7046C3.81467 35.7046 4.26825 36.8073 4.3264 37.7106L3.29132 37.8631Z" fill="#08080A"/>
<path d="M6.43778 40.4202C6.49011 41.6402 6.97858 41.9921 7.71709 41.9921C8.28696 41.9921 8.78706 41.7047 9.08363 41.476L9.25226 42.3206C8.78124 42.6198 8.28696 42.8954 7.50193 42.8954C6.20518 42.8954 5.32129 42.1095 5.32129 40.1386C5.32129 38.1854 6.10051 37.3701 7.43797 37.3701C8.79287 37.3701 9.32786 38.2617 9.32786 39.5814V40.4261H6.43778V40.4202ZM8.28696 39.5814C8.28696 38.6899 8.0311 38.2734 7.40889 38.2734C6.76924 38.2734 6.49593 38.6605 6.44359 39.5814H8.28696Z" fill="#08080A"/>
<path d="M14.5728 38.467L13.8576 38.4259C14.0437 38.6723 14.1135 38.9714 14.1135 39.3879C14.1135 40.5786 13.3459 41.3939 12.2061 41.3939C11.9793 41.3939 11.8747 41.3821 11.6944 41.3352C11.4967 41.476 11.3688 41.564 11.3688 41.7458C11.3688 42.303 14.538 41.6461 14.538 43.5406C14.538 44.6844 13.3459 45.2358 12.0607 45.2358C10.764 45.2358 9.90918 44.7607 9.90918 43.916C9.90918 43.3588 10.2639 42.96 10.8047 42.6667C10.5663 42.5376 10.3628 42.3382 10.3628 41.9218C10.3628 41.5053 10.6593 41.2296 10.9908 40.9891C10.5488 40.6489 10.2813 40.1035 10.2813 39.3703C10.2813 38.1502 11.0489 37.3643 12.2178 37.3643C12.4911 37.3643 12.7469 37.417 12.9679 37.4933H14.5787V38.467H14.5728ZM10.9094 43.7987C10.9094 44.2738 11.4676 44.397 12.0782 44.397C12.7586 44.397 13.468 44.1272 13.468 43.6697C13.468 43.0245 12.5841 43.0362 11.7758 42.9248C11.3513 43.1242 10.9094 43.4233 10.9094 43.7987ZM12.2003 38.2382C11.6304 38.2382 11.2757 38.5667 11.2757 39.382C11.2757 40.1973 11.6304 40.5258 12.2003 40.5258C12.7702 40.5258 13.1249 40.1973 13.1249 39.382C13.1249 38.5667 12.7702 38.2382 12.2003 38.2382Z" fill="#08080A"/>
<path d="M16.3521 37.4937V41.1068C16.3521 41.7813 16.765 41.9925 17.236 41.9925C17.707 41.9925 18.1199 41.7813 18.1199 41.1068V37.4937H19.1898V41.0775C19.1898 42.3092 18.3641 42.8958 17.2302 42.8958C16.1021 42.8958 15.2705 42.3092 15.2705 41.0775V37.4937H16.3521V37.4937Z" fill="#08080A"/>
<path d="M21.5737 37.4933V38.0095C22.0041 37.5461 22.4402 37.3643 22.8996 37.3643C23.6788 37.3643 23.8242 38.0799 23.8242 38.8541L22.9112 38.9655C22.8996 38.6488 22.8705 38.4318 22.5797 38.4318C22.2948 38.4318 21.9866 38.6723 21.6842 38.989V42.7723H20.6143V37.4992H21.5737V37.4933Z" fill="#08080A"/>
<path d="M28.5228 40.1562C28.5228 41.9804 27.7726 42.8954 26.3712 42.8954C24.993 42.8954 24.208 42.1036 24.208 40.1328C24.208 38.1972 24.964 37.3643 26.3712 37.3643C27.8366 37.3643 28.5228 38.162 28.5228 40.1562ZM25.3071 40.1328C25.3071 41.564 25.6618 41.9921 26.3712 41.9921C27.0806 41.9921 27.4237 41.564 27.4237 40.1562C27.4237 38.6899 27.0806 38.2675 26.3712 38.2675C25.6618 38.2675 25.3071 38.684 25.3071 40.1328Z" fill="#08080A"/>
<path d="M31.9763 39.0829C31.9356 38.6136 31.7321 38.2675 31.168 38.2675C30.7552 38.2675 30.4412 38.4435 30.4412 38.8424C30.4412 39.8454 32.8835 39.7574 32.8835 41.3528C32.8835 42.3089 32.2147 42.8896 31.0924 42.8896C30.2783 42.8896 29.6387 42.5728 29.2549 42.1974L29.6096 41.4056C29.9759 41.7634 30.5109 41.9921 31.0634 41.9921C31.4762 41.9921 31.8193 41.8338 31.8193 41.4173C31.8193 40.5844 29.4119 40.5962 29.4119 38.9128C29.4119 37.9801 30.069 37.3643 31.1622 37.3643C32.3717 37.3643 32.8718 38.0681 32.8718 38.9245L31.9763 39.0829Z" fill="#08080A"/>
<path d="M37.8209 42.6491V44.8135L36.7451 45.0481V37.4933H37.7104V37.9684C38.1058 37.6399 38.5943 37.3643 39.2456 37.3643C40.1295 37.3643 40.9843 37.898 40.9843 40.0741C40.9843 42.1212 40.0597 42.8954 38.8502 42.8954C38.5245 42.8954 38.1407 42.7957 37.8209 42.6491ZM37.8209 41.693C38.1233 41.8924 38.4373 41.9921 38.7455 41.9921C39.3677 41.9921 39.8562 41.5053 39.8562 40.0741C39.8562 38.6723 39.3735 38.3379 38.8734 38.3379C38.4489 38.3379 38.164 38.4846 37.8209 38.7075V41.693Z" fill="#08080A"/>
<path d="M44.566 38.9655C44.566 38.467 44.2404 38.2734 43.7985 38.2734C43.3391 38.2734 42.9495 38.5432 42.9495 39.0887L42.0074 38.989C42.0365 37.9156 42.8797 37.3701 43.8682 37.3701C44.9498 37.3701 45.6418 37.9273 45.6418 38.8717V41.6226C45.6418 41.869 45.7581 41.9804 45.9268 41.9804C46.0954 41.9804 46.2698 41.8983 46.4385 41.7693L46.5083 42.5552C46.3105 42.7664 45.9558 42.9013 45.6011 42.9013C45.229 42.9013 44.7754 42.7429 44.7289 42.1681C44.3334 42.6667 43.7752 42.9013 43.2228 42.9013C42.4028 42.9013 41.8271 42.4262 41.8271 41.4701C41.8271 40.121 43.1065 39.5638 44.5719 39.5755V38.9655H44.566ZM44.566 40.385C43.6531 40.3557 42.8855 40.6959 42.8855 41.3704C42.8855 41.781 43.0599 41.998 43.4728 41.998C43.874 41.998 44.2695 41.7399 44.566 41.4115V40.385Z" fill="#08080A"/>
<path d="M48.1831 37.4933V38.0095C48.6134 37.5461 49.0495 37.3643 49.5089 37.3643C50.2881 37.3643 50.4335 38.0799 50.4335 38.8541L49.5205 38.9655C49.5089 38.6488 49.4798 38.4318 49.1833 38.4318C48.8983 38.4318 48.5901 38.6723 48.2877 38.989V42.7723H47.2178V37.4992H48.1831V37.4933Z" fill="#08080A"/>
<path d="M53.6617 38.9655C53.6617 38.467 53.3361 38.2734 52.8942 38.2734C52.4348 38.2734 52.0452 38.5432 52.0452 39.0887L51.1031 38.989C51.1322 37.9156 51.9754 37.3701 52.9639 37.3701C54.0455 37.3701 54.7375 37.9273 54.7375 38.8717V41.6226C54.7375 41.869 54.8538 41.9804 55.0225 41.9804C55.1911 41.9804 55.3656 41.8983 55.5342 41.7693L55.604 42.5552C55.4063 42.7664 55.0515 42.9013 54.6968 42.9013C54.3247 42.9013 53.8711 42.7429 53.8246 42.1681C53.4291 42.6667 52.8709 42.9013 52.3185 42.9013C51.5044 42.9013 50.9229 42.4262 50.9229 41.4701C50.9229 40.121 52.2022 39.5638 53.6676 39.5755V38.9655H53.6617ZM53.6617 40.385C52.7488 40.3557 51.9812 40.6959 51.9812 41.3704C51.9812 41.781 52.1556 41.998 52.5685 41.998C52.9698 41.998 53.3652 41.7399 53.6617 41.4115V40.385Z" fill="#08080A"/>
<path d="M59.8951 37.4937V41.1068C59.8951 41.7813 60.3079 41.9925 60.779 41.9925C61.25 41.9925 61.6628 41.7813 61.6628 41.1068V37.4937H62.7328V41.0775C62.7328 42.3092 61.9071 42.8958 60.7731 42.8958C59.645 42.8958 58.8135 42.3092 58.8135 41.0775V37.4937H59.8951V37.4937Z" fill="#08080A"/>
<path d="M65.1225 37.9684C65.5354 37.6634 66.0471 37.3643 66.7449 37.3643C67.687 37.3643 68.2801 37.8922 68.2801 39.0418V42.7664H67.2043V39.2647C67.2043 38.6195 66.9892 38.3907 66.3902 38.3907C65.9948 38.3907 65.5645 38.5608 65.2272 38.7778V42.7664H64.1572V37.4933H65.1225V37.9684Z" fill="#08080A"/>
<path d="M73.3043 37.9684C73.6997 37.6634 74.2289 37.3643 74.8802 37.3643C75.4733 37.3643 75.8338 37.552 76.1013 37.9801C76.6305 37.6341 77.1422 37.3643 77.7761 37.3643C78.7123 37.3643 79.2415 37.8922 79.2415 39.0418V42.7664H78.1715V39.2354C78.1715 38.5784 77.9156 38.3907 77.3865 38.3907C77.0317 38.3907 76.6189 38.5784 76.3049 38.7778C76.3223 38.9069 76.3339 39.0535 76.3339 39.206V42.7664H75.264V39.382C75.264 38.6371 75.1244 38.3907 74.4789 38.3907C74.1126 38.3907 73.7521 38.5726 73.4264 38.7778V42.7664H72.3564V37.4933H73.3217V37.9684H73.3043Z" fill="#08080A"/>
<path d="M81.6021 37.4937V41.1068C81.6021 41.7813 82.015 41.9925 82.486 41.9925C82.957 41.9925 83.3699 41.7813 83.3699 41.1068V37.4937H84.4399V41.0775C84.4399 42.3092 83.6141 42.8958 82.4802 42.8958C81.3463 42.8958 80.5205 42.3092 80.5205 41.0775V37.4937H81.6021V37.4937Z" fill="#08080A"/>
<path d="M86.8248 37.9684C87.2376 37.6634 87.7494 37.3643 88.4472 37.3643C89.3892 37.3643 89.9823 37.8922 89.9823 39.0418V42.7664H88.9124V39.2647C88.9124 38.6195 88.6972 38.3907 88.0983 38.3907C87.7028 38.3907 87.2725 38.5608 86.9411 38.7778V42.7664H85.8711V37.4933H86.8364V37.9684H86.8248Z" fill="#08080A"/>
<path d="M94.3489 42.139C93.9651 42.5789 93.4825 42.8956 92.8428 42.8956C91.9996 42.8956 91.0518 42.2387 91.0518 40.1447C91.0518 38.1094 91.9473 37.3644 92.9126 37.3644C93.3545 37.3644 93.7267 37.4759 94.1803 37.6929V35.5227L95.2502 35.3232V41.6169C95.2502 41.8633 95.3665 41.9747 95.5352 41.9747C95.7038 41.9747 95.8783 41.8926 96.0469 41.7636L96.1167 42.5496C95.919 42.7607 95.5642 42.8956 95.2095 42.8956C94.8025 42.8956 94.3954 42.7138 94.3489 42.139ZM94.1803 38.5669C93.8662 38.4085 93.5813 38.2677 93.1394 38.2677C92.6451 38.2677 92.1741 38.5962 92.1741 40.0919C92.1741 41.3823 92.6044 41.8985 93.0812 41.8985C93.5639 41.8985 93.9244 41.5993 94.1803 41.3002V38.5669Z" fill="#08080A"/>
<path d="M100.879 40.1562C100.879 41.9804 100.135 42.8954 98.7276 42.8954C97.3495 42.8954 96.5645 42.1036 96.5645 40.1328C96.5645 38.1972 97.3204 37.3643 98.7276 37.3643C100.193 37.3643 100.879 38.162 100.879 40.1562ZM97.6635 40.1328C97.6635 41.564 98.0182 41.9921 98.7276 41.9921C99.4371 41.9921 99.7802 41.564 99.7802 40.1562C99.7802 38.6899 99.4371 38.2675 98.7276 38.2675C98.0182 38.2675 97.6635 38.684 97.6635 40.1328Z" fill="#08080A"/>
<path d="M105.461 40.4202C105.514 41.6402 106.002 41.9921 106.74 41.9921C107.31 41.9921 107.81 41.7047 108.107 41.476L108.276 42.3206C107.805 42.6198 107.31 42.8954 106.525 42.8954C105.229 42.8954 104.339 42.1095 104.339 40.1386C104.339 38.1854 105.118 37.3701 106.456 37.3701C107.81 37.3701 108.345 38.2617 108.345 39.5814V40.4261H105.461V40.4202ZM107.31 39.5814C107.31 38.6899 107.054 38.2734 106.432 38.2734C105.793 38.2734 105.519 38.6605 105.467 39.5814H107.31Z" fill="#08080A"/>
<path d="M110.486 37.9684C110.899 37.6634 111.41 37.3643 112.108 37.3643C113.05 37.3643 113.643 37.8922 113.643 39.0418V42.7664H112.573V39.2647C112.573 38.6195 112.358 38.3907 111.759 38.3907C111.364 38.3907 110.934 38.5608 110.596 38.7778V42.7664H109.526V37.4933H110.492V37.9684H110.486Z" fill="#08080A"/>
<path d="M118.47 40.4202C118.522 41.6402 119.011 41.9921 119.749 41.9921C120.319 41.9921 120.819 41.7047 121.116 41.476L121.284 42.3206C120.813 42.6198 120.319 42.8954 119.534 42.8954C118.237 42.8954 117.348 42.1095 117.348 40.1386C117.348 38.1854 118.127 37.3701 119.464 37.3701C120.819 37.3701 121.354 38.2617 121.354 39.5814V40.4261H118.47V40.4202ZM120.319 39.5814C120.319 38.6899 120.063 38.2734 119.441 38.2734C118.801 38.2734 118.528 38.6605 118.476 39.5814H120.319Z" fill="#08080A"/>
<path d="M122.959 37.4937L124.267 41.576L125.512 37.4937H126.588L124.843 42.7667H123.599L121.813 37.4937H122.959Z" fill="#08080A"/>
<path d="M131.368 40.1562C131.368 41.9804 130.617 42.8954 129.216 42.8954C127.838 42.8954 127.053 42.1036 127.053 40.1328C127.053 38.1972 127.809 37.3643 129.216 37.3643C130.676 37.3643 131.368 38.162 131.368 40.1562ZM128.152 40.1328C128.152 41.564 128.506 41.9921 129.216 41.9921C129.925 41.9921 130.268 41.564 130.268 40.1562C130.268 38.6899 129.925 38.2675 129.216 38.2675C128.506 38.2675 128.152 38.684 128.152 40.1328Z" fill="#08080A"/>
<path d="M133.606 35.3232V41.5583C133.606 41.8457 133.763 41.9571 133.972 41.9571C134.199 41.9571 134.403 41.8692 134.612 41.7518L134.717 42.5847C134.315 42.8018 134.001 42.9015 133.624 42.9015C132.751 42.9015 132.53 42.2563 132.53 41.5641V35.5227L133.606 35.3232Z" fill="#08080A"/>
<path d="M136.38 37.4937V41.1068C136.38 41.7813 136.793 41.9925 137.264 41.9925C137.735 41.9925 138.148 41.7813 138.148 41.1068V37.4937H139.218V41.0775C139.218 42.3092 138.392 42.8958 137.264 42.8958C136.13 42.8958 135.305 42.3092 135.305 41.0775V37.4937H136.38V37.4937Z" fill="#08080A"/>
<path d="M143.19 39.2705C143.161 38.7544 142.946 38.2675 142.353 38.2675C141.701 38.2675 141.41 38.6429 141.41 40.1328C141.41 41.6226 141.852 41.9921 142.632 41.9921C143.254 41.9921 143.655 41.7223 143.952 41.517L144.161 42.3206C143.719 42.6256 143.178 42.8954 142.422 42.8954C141.062 42.8954 140.3 42.0332 140.3 40.1269C140.3 38.291 140.957 37.3643 142.405 37.3643C143.661 37.3643 144.144 38.1502 144.167 39.1708C143.83 39.2002 143.51 39.2295 143.19 39.2705Z" fill="#08080A"/>
<path d="M146.382 36.7898H145.312V35.6167H146.382V36.7898ZM146.382 42.7668H145.312V37.4937H146.382V42.7668Z" fill="#08080A"/>
<path d="M151.883 40.1564C151.883 41.9806 151.133 42.8956 149.726 42.8956C148.348 42.8956 147.562 42.1038 147.562 40.1388C147.562 38.2032 148.318 37.3703 149.726 37.3703C151.197 37.3644 151.883 38.1622 151.883 40.1564ZM148.667 40.133C148.667 41.5641 149.022 41.9923 149.732 41.9923C150.441 41.9923 150.784 41.5642 150.784 40.1564C150.784 38.69 150.441 38.2677 149.732 38.2677C149.022 38.2677 148.667 38.6842 148.667 40.133ZM151.273 35.3232L150.133 36.8893H149.22L150.185 35.3232H151.273Z" fill="#08080A"/>
<path d="M154.029 37.9684C154.442 37.6634 154.953 37.3643 155.651 37.3643C156.593 37.3643 157.186 37.8922 157.186 39.0418V42.7664H156.116V39.2647C156.116 38.6195 155.901 38.3907 155.302 38.3907C154.907 38.3907 154.477 38.5608 154.145 38.7778V42.7664H153.069V37.4933H154.035V37.9684H154.029Z" fill="#08080A"/>
<path d="M34.7156 4.60557C34.7854 5.57925 34.8378 8.00757 34.8378 8.89913C34.8378 9.71443 34.8319 12.4478 34.704 13.6326L34.6924 13.7264H38.9316C41.0017 13.7264 43.2114 13.0636 43.2114 11.1984C43.2114 10.0253 42.3741 9.16308 40.804 8.68797C41.9496 8.3771 42.7346 7.56766 42.7346 6.64091C42.7346 5.12174 41.0017 4.54105 39.3851 4.50586C39.3793 4.50586 34.7098 4.50586 34.7098 4.50586L34.7156 4.60557ZM37.9895 5.54405C39.7573 5.54992 40.4144 5.91945 40.4144 6.89312C40.4144 7.15707 40.333 7.37996 40.176 7.57352C39.8387 7.98411 39.1642 8.19527 38.3268 8.15421H38.2861L37.7976 9.45049H38.2919C39.2688 9.42116 40.1178 9.73203 40.5481 10.2717C40.7517 10.518 40.8505 10.7996 40.8505 11.1046C40.8505 12.131 39.9608 12.6531 38.2221 12.6531C37.9314 12.6531 37.4545 12.6472 37.1522 12.6296C37.0882 11.2805 37.0882 9.44462 37.0882 8.89913C37.0882 8.25392 37.1173 6.82274 37.158 5.59684C37.3499 5.56752 37.6871 5.53819 37.9895 5.54405Z" fill="#08080A"/>
<path d="M52.975 4.51758H50.9222L51.0095 6.83446C51.0444 7.98996 51.0851 9.16893 51.1607 10.3127C51.0211 9.96664 50.9048 9.77308 50.2884 8.85806C50.271 8.82286 48.131 5.48539 47.3925 4.54691L47.3693 4.51758H44.9676L44.9735 4.60556C45.0432 5.57337 45.0956 8.00169 45.0956 8.89911C45.0956 9.71442 45.0839 12.4536 44.9618 13.6384L44.9502 13.7323H47.0785L47.0727 13.6384C46.9506 11.3802 46.9506 9.11614 46.9506 6.92244V6.91657C47.0204 7.18052 47.125 7.42101 47.4623 7.92544C47.4972 7.98409 51.1549 13.3745 51.3409 13.6971L51.3584 13.7323H53.068L53.0564 13.6384C52.9284 12.4536 52.9226 9.71442 52.9226 8.89911C52.9226 8.00169 52.975 5.57337 53.0447 4.60556L53.0506 4.51758H52.975V4.51758Z" fill="#08080A"/>
<path d="M55.452 4.60557C55.5218 5.57924 55.5741 8.00756 55.5741 8.89912C55.5741 9.71443 55.5625 12.4536 55.4404 13.6326L55.4346 13.7264H57.9699L57.9583 13.6326C57.8711 12.788 57.8362 11.1691 57.8304 9.91972C57.935 9.92558 58.2956 9.94318 58.2956 9.94318L58.6503 9.96078C61.9939 9.96078 63.6163 9.05749 63.6163 7.18639C63.6163 5.05135 61.3368 4.55278 59.4295 4.51758L55.4462 4.51172L55.452 4.60557ZM58.5631 5.62617C59.7493 5.6027 60.5867 5.85492 60.9879 6.35349C61.1682 6.58224 61.2613 6.86379 61.2613 7.19226C61.2613 8.52959 59.7842 8.80527 58.5456 8.80527L58.0455 8.78768C58.0455 8.78768 57.9234 8.77008 57.842 8.75835C57.8362 8.45334 57.8304 8.05449 57.8304 7.59111C57.8304 7.00456 57.8362 6.32416 57.8594 5.69069C58.0106 5.65549 58.2898 5.63203 58.5631 5.62617Z" fill="#08080A"/>
<path d="M68.4608 4.60557C68.5305 5.57924 68.5829 8.00756 68.5829 8.89912C68.5829 9.71443 68.5712 12.4536 68.4491 13.6326L68.4375 13.7264H70.9787L70.967 13.6326C70.8798 12.788 70.8507 11.1691 70.8391 9.91972C70.9438 9.92558 71.3043 9.94318 71.3043 9.94318L71.6649 9.96078C75.0085 9.96078 76.6367 9.05749 76.6367 7.18639C76.6367 5.05135 74.3572 4.55278 72.4441 4.51758L68.4666 4.51172L68.4608 4.60557ZM71.5718 5.62617C72.7581 5.6027 73.5955 5.85492 73.9967 6.35349C74.177 6.58224 74.27 6.86379 74.27 7.19226C74.27 8.52959 72.793 8.80527 71.5544 8.80527L71.0543 8.78768C71.0543 8.78768 70.9322 8.77008 70.8566 8.75835C70.8449 8.45334 70.8391 8.04862 70.8391 7.59111C70.8391 7.00456 70.8507 6.33003 70.874 5.69069C71.0252 5.65549 71.2985 5.63203 71.5718 5.62617Z" fill="#08080A"/>
<path d="M80.0263 4.51758H79.9798L79.9624 4.57037C79.4913 5.87838 76.4559 12.5827 75.979 13.6091L75.9209 13.7323H78.0957L78.1132 13.6795C78.3051 13.0519 78.5435 12.3363 78.8342 11.5621C78.9156 11.5621 80.6311 11.5327 80.6311 11.5327L82.1139 11.5503C82.1139 11.5503 82.3756 11.5621 82.4396 11.5621C82.8292 12.5533 83.1199 13.31 83.2537 13.6795L83.2711 13.7323H85.789L81.7301 4.51758H81.6894H80.0263ZM80.6427 7.23331C80.8462 7.66149 81.3638 8.89912 81.9511 10.3538C81.8639 10.3538 81.7592 10.3596 81.7592 10.3596L80.6427 10.3772C80.6427 10.3772 79.4855 10.3596 79.3053 10.3538C79.7821 9.18653 80.2415 8.13073 80.6427 7.23331Z" fill="#08080A"/>
<path d="M86.7957 4.60555C86.8596 5.57336 86.9178 8.00755 86.9178 8.89911C86.9178 9.71441 86.9062 12.4536 86.7782 13.6326L86.7666 13.7323H89.302L89.2903 13.6326C89.1624 12.4477 89.1566 9.70855 89.1566 8.89324C89.1566 8.2539 89.1857 6.81685 89.2322 5.67308C89.4415 5.64375 89.7206 5.62029 89.9184 5.61442C91.1046 5.59096 91.942 5.84318 92.3432 6.34175C92.5235 6.56464 92.6223 6.84618 92.6223 7.18051C92.6223 8.24217 91.6338 8.7818 90.7092 8.83459C90.4068 8.84632 90.1742 8.80526 90.1742 8.80526L89.9998 8.77593L90.1103 8.94017C91 10.2716 92.349 12.5885 92.9189 13.6912L92.9422 13.7323H95.6636L95.5822 13.5974C95.4892 13.4449 93.704 10.8054 92.948 9.67922C92.948 9.67922 92.9189 9.64403 92.9015 9.6147C94.2855 9.19238 94.9658 8.40054 94.9658 7.19224C94.9658 5.0572 92.6863 4.5645 90.7732 4.52344H86.7899L86.7957 4.60555Z" fill="#08080A"/>
<path d="M99.2626 4.51172H96.8261L96.8378 4.5997C96.9075 5.57338 96.9599 8.00756 96.9599 8.89912C96.9599 9.71443 96.9482 12.4478 96.8261 13.6326L96.8203 13.7264H99.3557L99.344 13.6326C99.2219 12.4478 99.2103 9.70856 99.2103 8.89912C99.2103 8.00756 99.2626 5.57338 99.3324 4.5997L99.3382 4.51172H99.2626V4.51172Z" fill="#08080A"/>
<path d="M101.635 4.60557C101.704 5.57338 101.751 8.00757 101.751 8.89913C101.751 9.71443 101.745 12.4478 101.617 13.6326L101.605 13.7264H105.845C107.915 13.7264 110.125 13.0636 110.125 11.1984C110.125 10.0253 109.287 9.16308 107.717 8.68797C108.868 8.3771 109.654 7.56766 109.654 6.64091C109.654 5.12174 107.926 4.54105 106.304 4.50586H101.629L101.635 4.60557ZM104.908 5.54405C106.676 5.54992 107.333 5.91945 107.333 6.89312C107.333 7.15707 107.252 7.37996 107.095 7.57352C106.758 7.98411 106.083 8.19527 105.246 8.15421H105.199L104.717 9.45049H105.211C106.188 9.42116 107.025 9.73203 107.467 10.2717C107.671 10.518 107.769 10.7996 107.769 11.1046C107.769 12.131 106.886 12.6531 105.141 12.6531C104.844 12.6531 104.368 12.6472 104.065 12.6296C104.001 11.2805 104.001 9.44462 104.001 8.89913C104.001 8.25392 104.03 6.81687 104.077 5.59684C104.269 5.56752 104.606 5.53819 104.908 5.54405Z" fill="#08080A"/>
<path d="M116.37 4.51172H114.66L114.643 4.56451C114.143 5.9605 110.927 13.0226 110.66 13.6033L110.602 13.7264H112.782L112.794 13.6736C112.98 13.046 113.23 12.3363 113.515 11.5621C113.59 11.5621 115.312 11.5327 115.312 11.5327L116.795 11.5562C116.795 11.5562 117.05 11.5621 117.12 11.5621C117.516 12.5592 117.801 13.3041 117.929 13.6795L117.946 13.7264H120.47L116.411 4.51172H116.37ZM115.323 7.22745C115.527 7.6615 116.044 8.89326 116.632 10.3479C116.545 10.3479 116.44 10.3596 116.44 10.3596L115.318 10.3772C115.318 10.3772 114.166 10.3538 113.986 10.3479C114.457 9.16893 114.922 8.12487 115.323 7.22745Z" fill="#08080A"/>
<path d="M121.174 6.9047C121.174 8.52358 122.79 9.18051 124.209 9.76707C125.32 10.2187 126.46 10.688 126.46 11.4563C126.46 11.691 126.407 11.8786 126.285 12.0253C126.024 12.342 125.477 12.4769 124.622 12.4359C123.785 12.3948 122.825 12.1191 121.767 11.6206L121.325 11.4153L121.331 11.7731V13.4271L121.616 13.4917L121.79 13.5269C122.325 13.6559 123.337 13.8964 124.36 13.8964C127.035 13.8964 128.635 12.823 128.635 11.034C128.635 9.37408 126.983 8.70541 125.529 8.12472C124.454 7.69067 123.343 7.2449 123.343 6.53517C123.343 6.32988 123.343 5.714 124.715 5.714C125.744 5.714 126.75 6.13631 127.297 6.36507L127.82 6.58209L127.815 6.23016V4.55263L127.297 4.45878C126.78 4.35906 125.919 4.18896 125.023 4.18896C122.721 4.19483 121.174 5.27995 121.174 6.9047Z" fill="#08080A"/>
<path d="M41.0662 18.5481C40.6242 18.2841 40.0834 18.0671 39.3798 18.0671C37.3213 18.0671 36.6118 19.7095 36.6118 21.1113C36.6118 23.0587 37.7981 24.0382 39.3914 24.0382C40.3858 24.0382 41.1301 23.569 41.7989 22.9765L41.8105 24.6658C41.1301 24.9415 40.2986 25.182 39.0425 25.182C36.1699 25.182 34.373 23.3813 34.373 21.0878C34.373 18.6713 36.2746 16.9292 39.4031 16.9292C40.1358 16.9292 40.851 17.0465 41.5372 17.2166L41.0662 18.5481Z" fill="#08080A"/>
<path d="M48.0025 17.0698C48.3107 17.891 50.9042 23.7272 51.5206 25.0528H49.34C49.2179 24.6891 48.9562 24.0263 48.6189 23.17C48.1654 23.1582 47.706 23.1465 47.0605 23.1465C46.4616 23.1465 46.008 23.1582 45.4904 23.17C45.2404 23.8445 45.0369 24.4604 44.8566 25.0528H42.9551C43.4087 24.0615 46.0661 18.2488 46.4848 17.0698H48.0025V17.0698ZM48.1944 22.12L47.0663 19.416C46.7058 20.1903 46.3104 21.0994 45.8917 22.12C46.229 22.1318 46.6942 22.1435 47.0663 22.1435C47.4268 22.1435 47.8106 22.1318 48.1944 22.12Z" fill="#08080A"/>
<path d="M56.3476 17.0698C58.0107 17.0698 59.9878 17.5391 59.9878 19.3867C59.9878 20.4249 59.3888 21.117 58.2026 21.4866C58.3712 21.8268 60.2843 24.7595 60.5984 25.0528H58.2375C57.7199 24.0615 56.5395 22.0555 55.6846 20.7534C55.83 20.7886 56.0452 20.812 56.2952 20.812C56.9872 20.812 57.9583 20.3076 57.9583 19.3867C57.9583 18.2371 56.5802 18.0318 55.8882 18.0318C55.5393 18.0318 55.202 18.0552 55.0275 18.0787C54.981 19.07 54.9578 20.3135 54.9578 20.8707C54.9578 21.5804 54.9578 23.9383 55.0799 25.0528H52.876C52.9923 23.9501 53.0097 22.5247 53.0097 20.8707C53.0097 19.4805 52.9981 17.8147 52.8934 17.0757H56.3476V17.0698Z" fill="#08080A"/>
<path d="M65.1339 17.0698C68.4659 17.0698 69.7452 18.8353 69.7452 21.0466C69.7452 23.3283 68.5008 25.0469 65.0118 25.0469H62.0752C62.1915 23.9735 62.1915 22.5072 62.1915 20.8765C62.1915 20.1023 62.1915 18.108 62.0752 17.0698H65.1339V17.0698ZM64.2035 18.0728C64.157 18.5949 64.1454 19.9557 64.1454 20.8765C64.1454 22.0379 64.1454 22.9529 64.1919 24.0381C64.3082 24.0498 64.4884 24.0732 64.7559 24.0732C66.6633 24.0732 67.6635 23.4691 67.6635 21.0173C67.6635 18.6828 66.6458 18.02 64.7152 18.0611L64.2035 18.0728Z" fill="#08080A"/>
<path d="M73.8046 17.0698C73.7348 17.9966 73.6883 20.0906 73.6883 20.8765C73.6883 21.5745 73.6999 23.9442 73.8046 25.0469H71.6123C71.7286 23.9442 71.7344 21.5745 71.7344 20.8765C71.7344 20.1023 71.6879 17.9907 71.6356 17.0698H73.8046V17.0698Z" fill="#08080A"/>
<path d="M82.1949 17.0698V18.2253C81.5727 18.1901 80.0259 18.1432 79.5025 18.1432C79.1187 18.1432 78.6884 18.1432 78.2465 18.1784C78.2116 18.6711 78.2 19.287 78.2 19.8208C78.2 20.0847 78.1999 20.3252 78.2116 20.5187L80.9679 20.4718V21.7153L78.2116 21.6039C78.2232 22.6186 78.2348 24.1906 78.3337 25.0587H76.1182C76.2519 23.9559 76.2519 21.5863 76.2519 20.8883C76.2519 20.114 76.1938 18.0024 76.124 17.0816H82.1949V17.0698Z" fill="#08080A"/>
<defs>
<linearGradient id="paint0_linear_399_35814" x1="14.0025" y1="0.0745397" x2="14.0025" y2="29.4731" gradientUnits="userSpaceOnUse">
<stop stop-color="#43774F"/>
<stop offset="0.6" stop-color="#9FC8AD"/>
<stop offset="1" stop-color="#549462"/>
</linearGradient>
<linearGradient id="paint1_linear_399_35814" x1="13.9692" y1="-6.16144" x2="13.9692" y2="26.8745" gradientUnits="userSpaceOnUse">
<stop stop-color="#549462"/>
<stop offset="0.3" stop-color="#9FC8AD"/>
<stop offset="0.55" stop-color="#549462"/>
<stop offset="0.8352" stop-color="#43774F"/>
<stop offset="0.8842" stop-color="#477E55"/>
<stop offset="0.9635" stop-color="#529167"/>
<stop offset="1" stop-color="#599D73"/>
</linearGradient>
<linearGradient id="paint2_linear_399_35814" x1="19.198" y1="25.0635" x2="19.198" y2="3.6851" gradientUnits="userSpaceOnUse">
<stop stop-color="#5EA77E"/>
<stop offset="1" stop-color="#549462"/>
</linearGradient>
<linearGradient id="paint3_linear_399_35814" x1="6.05757" y1="25.0563" x2="6.05757" y2="3.67157" gradientUnits="userSpaceOnUse">
<stop stop-color="#5EA77E"/>
<stop offset="1" stop-color="#549462"/>
</linearGradient>
<linearGradient id="paint4_linear_399_35814" x1="10.1639" y1="25.0388" x2="10.1639" y2="3.66708" gradientUnits="userSpaceOnUse">
<stop stop-color="#5EA77E"/>
<stop offset="1" stop-color="#549462"/>
</linearGradient>
<linearGradient id="paint5_linear_399_35814" x1="13.6937" y1="25.0559" x2="13.6937" y2="3.6774" gradientUnits="userSpaceOnUse">
<stop stop-color="#5EA77E"/>
<stop offset="1" stop-color="#549462"/>
</linearGradient>
</defs>
</svg>
