<svg width="48" height="48" viewBox="0 0 48 48" fill="none" xmlns="http://www.w3.org/2000/svg">
<path d="M38.9062 16.0117C39.0234 16.7852 39.0234 17.5703 38.9062 18.3672C38.8125 19.1406 38.5898 20.0195 38.2383 21.0039C37.7461 22.3867 37.1133 23.793 36.3398 25.2227C35.5664 26.6523 34.6523 28.082 33.5977 29.5117C32.543 30.9414 31.3477 32.3594 30.0117 33.7656C28.6758 35.1719 27.2109 36.5547 25.6172 37.9141C25.3828 38.1016 25.125 38.2422 24.8438 38.3359C24.5625 38.4531 24.2812 38.5117 24 38.5117C23.7188 38.5117 23.4375 38.4531 23.1562 38.3359C22.875 38.2422 22.6172 38.1016 22.3828 37.9141C20.7891 36.5547 19.3242 35.1719 17.9883 33.7656C16.6758 32.3594 15.4922 30.9414 14.4375 29.5117C13.3828 28.082 12.4688 26.6523 11.6953 25.2227C10.8984 23.793 10.2539 22.3867 9.76172 21.0039C9.43359 20.0195 9.21094 19.1406 9.09375 18.3672C8.97656 17.5703 8.97656 16.7852 9.09375 16.0117C9.25781 14.957 9.59766 13.9727 10.1133 13.0586C10.6289 12.1445 11.2734 11.3477 12.0469 10.668C12.8203 9.98828 13.6875 9.46094 14.6484 9.08594C15.6328 8.6875 16.6641 8.48828 17.7422 8.48828C17.7656 8.48828 17.7773 8.48828 17.7773 8.48828C17.7773 8.48828 17.7891 8.48828 17.8125 8.48828C19.0312 8.51172 20.168 8.75781 21.2227 9.22656C22.3008 9.69531 23.2266 10.3281 24 11.125C24.7969 10.3281 25.7227 9.69531 26.7773 9.22656C27.8555 8.75781 28.9922 8.51172 30.1875 8.48828C30.2109 8.48828 30.2227 8.48828 30.2227 8.48828C30.2227 8.48828 30.2344 8.48828 30.2578 8.48828C31.3359 8.48828 32.3672 8.6875 33.3516 9.08594C34.3359 9.46094 35.2031 9.98828 35.9531 10.668C36.7266 11.3477 37.3711 12.1445 37.8867 13.0586C38.4023 13.9727 38.7422 14.957 38.9062 16.0117ZM36.832 20.5117C37.1367 19.6211 37.3359 18.8477 37.4297 18.1914C37.5234 17.5352 37.5234 16.8789 37.4297 16.2227C37.2891 15.3789 37.0078 14.582 36.5859 13.832C36.1641 13.0586 35.625 12.3789 34.9688 11.793C34.6641 11.5117 34.3242 11.2656 33.9492 11.0547C33.5977 10.8203 33.2227 10.6328 32.8242 10.4922C32.4023 10.3281 31.9805 10.2109 31.5586 10.1406C31.1367 10.0469 30.7031 10 30.2578 10C30.2578 10 30.2461 10 30.2227 10C29.7305 10 29.2383 10.0586 28.7461 10.1758C28.2773 10.2695 27.8203 10.4102 27.375 10.5977C26.9531 10.7852 26.543 11.0078 26.1445 11.2656C25.7695 11.5234 25.418 11.8281 25.0898 12.1797L24 13.2695L22.9453 12.1797C22.6172 11.8281 22.2539 11.5234 21.8555 11.2656C21.4805 11.0078 21.0703 10.7852 20.625 10.5977C20.1797 10.4102 19.7227 10.2695 19.2539 10.1758C18.7852 10.0586 18.3047 10 17.8125 10C17.7891 10 17.7773 10 17.7773 10C17.7773 10 17.7656 10 17.7422 10C17.3203 10 16.8867 10.0469 16.4414 10.1406C16.0195 10.2109 15.6094 10.3281 15.2109 10.4922C14.8125 10.6328 14.4258 10.8203 14.0508 11.0547C13.6992 11.2656 13.3594 11.5117 13.0312 11.793C12.375 12.3789 11.8359 13.0586 11.4141 13.832C10.9922 14.582 10.7227 15.3789 10.6055 16.2227C10.4883 16.8555 10.4766 17.5117 10.5703 18.1914C10.6641 18.8477 10.875 19.6211 11.2031 20.5117C11.6719 21.8477 12.2695 23.1953 12.9961 24.5547C13.7461 25.9141 14.625 27.2734 15.6328 28.6328C16.1484 29.3359 16.6992 30.0391 17.2852 30.7422C17.8711 31.4219 18.4805 32.1016 19.1133 32.7812C19.7695 33.4609 20.4492 34.1406 21.1523 34.8203C21.8555 35.4766 22.5938 36.1211 23.3672 36.7539C23.4375 36.8242 23.5312 36.8828 23.6484 36.9297C23.7656 36.9766 23.8828 37 24 37C24.1172 37 24.2344 36.9766 24.3516 36.9297C24.4688 36.8828 24.5742 36.8242 24.668 36.7539C25.418 36.1211 26.1445 35.4766 26.8477 34.8203C27.5508 34.1406 28.2188 33.4609 28.8516 32.7812C29.5078 32.1016 30.1289 31.4219 30.7148 30.7422C31.3008 30.0391 31.8516 29.3359 32.3672 28.6328C33.375 27.2734 34.2422 25.9141 34.9688 24.5547C35.7188 23.1953 36.3398 21.8477 36.832 20.5117ZM17.9883 12.9883C18.5977 12.9883 19.1719 13.1055 19.7109 13.3398C20.2734 13.5742 20.7656 13.9023 21.1875 14.3242C21.6094 14.7461 21.9258 15.2383 22.1367 15.8008C22.3711 16.3398 22.4883 16.9023 22.4883 17.4883C22.4883 18.0977 22.3711 18.6836 22.1367 19.2461C21.9258 19.7852 21.6094 20.2656 21.1875 20.6875C20.7656 21.1094 20.2734 21.4375 19.7109 21.6719C19.1719 21.8828 18.5977 21.9883 17.9883 21.9883C17.4023 21.9883 16.8281 21.8828 16.2656 21.6719C15.7266 21.4375 15.2461 21.1094 14.8242 20.6875C14.4023 20.2656 14.0742 19.7852 13.8398 19.2461C13.6055 18.6836 13.4883 18.0977 13.4883 17.4883C13.4883 16.9023 13.6055 16.3398 13.8398 15.8008C14.0742 15.2383 14.4023 14.7461 14.8242 14.3242C15.2461 13.9023 15.7266 13.5742 16.2656 13.3398C16.8281 13.1055 17.4023 12.9883 17.9883 12.9883ZM17.9883 20.5117C18.832 20.5117 19.5469 20.2188 20.1328 19.6328C20.7188 19.0469 21.0117 18.332 21.0117 17.4883C21.0117 16.668 20.7188 15.9648 20.1328 15.3789C19.5469 14.793 18.832 14.5 17.9883 14.5C17.168 14.5 16.4648 14.793 15.8789 15.3789C15.293 15.9648 15 16.668 15 17.4883C15 18.332 15.293 19.0469 15.8789 19.6328C16.4648 20.2188 17.168 20.5117 17.9883 20.5117Z" fill="#56504C"/>
</svg>
